solid cube with hole_fine
   facet normal 0.000000e+000 0.000000e+000 1.000000e+000
      outer loop
         vertex 7.535180e+001 4.731574e+001 7.000000e+001
         vertex 7.589220e+001 4.399051e+001 7.000000e+001
         vertex 1.046977e+002 8.172177e+001 7.000000e+001
      endloop
   endfacet
   facet normal 0.000000e+000 0.000000e+000 1.000000e+000
      outer loop
         vertex 1.046977e+002 8.172177e+001 7.000000e+001
         vertex 7.589220e+001 4.399051e+001 7.000000e+001
         vertex 7.596008e+001 4.230607e+001 7.000000e+001
      endloop
   endfacet
   facet normal 0.000000e+000 0.000000e+000 1.000000e+000
      outer loop
         vertex 1.046977e+002 8.172177e+001 7.000000e+001
         vertex 7.596008e+001 4.230607e+001 7.000000e+001
         vertex 1.046977e+002 0.000000e+000 7.000000e+001
      endloop
   endfacet
   facet normal 0.000000e+000 0.000000e+000 1.000000e+000
      outer loop
         vertex 1.046977e+002 0.000000e+000 7.000000e+001
         vertex 7.596008e+001 4.230607e+001 7.000000e+001
         vertex 7.589220e+001 4.062164e+001 7.000000e+001
      endloop
   endfacet
   facet normal 0.000000e+000 0.000000e+000 1.000000e+000
      outer loop
         vertex 1.046977e+002 0.000000e+000 7.000000e+001
         vertex 7.589220e+001 4.062164e+001 7.000000e+001
         vertex 7.535180e+001 3.729640e+001 7.000000e+001
      endloop
   endfacet
   facet normal 0.000000e+000 0.000000e+000 1.000000e+000
      outer loop
         vertex 4.920276e+001 2.219925e+001 7.000000e+001
         vertex 4.605282e+001 2.339387e+001 7.000000e+001
         vertex 0.000000e+000 0.000000e+000 7.000000e+001
      endloop
   endfacet
   facet normal 0.000000e+000 0.000000e+000 1.000000e+000
      outer loop
         vertex 0.000000e+000 0.000000e+000 7.000000e+001
         vertex 4.605282e+001 2.339387e+001 7.000000e+001
         vertex 4.313530e+001 2.507830e+001 7.000000e+001
      endloop
   endfacet
   facet normal 0.000000e+000 0.000000e+000 1.000000e+000
      outer loop
         vertex 4.313530e+001 2.507830e+001 7.000000e+001
         vertex 4.052576e+001 2.720892e+001 7.000000e+001
         vertex 0.000000e+000 0.000000e+000 7.000000e+001
      endloop
   endfacet
   facet normal 0.000000e+000 0.000000e+000 1.000000e+000
      outer loop
         vertex 0.000000e+000 0.000000e+000 7.000000e+001
         vertex 4.052576e+001 2.720892e+001 7.000000e+001
         vertex 3.829179e+001 2.973055e+001 7.000000e+001
      endloop
   endfacet
   facet normal 0.000000e+000 0.000000e+000 1.000000e+000
      outer loop
         vertex 0.000000e+000 0.000000e+000 7.000000e+001
         vertex 3.829179e+001 2.973055e+001 7.000000e+001
         vertex 3.649125e+001 3.257788e+001 7.000000e+001
      endloop
   endfacet
   facet normal 0.000000e+000 0.000000e+000 1.000000e+000
      outer loop
         vertex 7.535180e+001 3.729640e+001 7.000000e+001
         vertex 7.428499e+001 3.410092e+001 7.000000e+001
         vertex 1.046977e+002 0.000000e+000 7.000000e+001
      endloop
   endfacet
   facet normal 0.000000e+000 0.000000e+000 1.000000e+000
      outer loop
         vertex 1.046977e+002 0.000000e+000 7.000000e+001
         vertex 7.428499e+001 3.410092e+001 7.000000e+001
         vertex 7.271940e+001 3.111794e+001 7.000000e+001
      endloop
   endfacet
   facet normal 0.000000e+000 0.000000e+000 1.000000e+000
      outer loop
         vertex 1.046977e+002 0.000000e+000 7.000000e+001
         vertex 7.271940e+001 3.111794e+001 7.000000e+001
         vertex 7.069558e+001 2.842472e+001 7.000000e+001
      endloop
   endfacet
   facet normal 0.000000e+000 0.000000e+000 1.000000e+000
      outer loop
         vertex 3.649125e+001 3.257788e+001 7.000000e+001
         vertex 3.517077e+001 3.567717e+001 7.000000e+001
         vertex 0.000000e+000 0.000000e+000 7.000000e+001
      endloop
   endfacet
   facet normal 0.000000e+000 0.000000e+000 1.000000e+000
      outer loop
         vertex 0.000000e+000 0.000000e+000 7.000000e+001
         vertex 3.517077e+001 3.567717e+001 7.000000e+001
         vertex 3.436455e+001 3.894814e+001 7.000000e+001
      endloop
   endfacet
   facet normal 0.000000e+000 0.000000e+000 1.000000e+000
      outer loop
         vertex 0.000000e+000 0.000000e+000 7.000000e+001
         vertex 3.436455e+001 3.894814e+001 7.000000e+001
         vertex 0.000000e+000 8.172177e+001 7.000000e+001
      endloop
   endfacet
   facet normal 0.000000e+000 0.000000e+000 1.000000e+000
      outer loop
         vertex 0.000000e+000 8.172177e+001 7.000000e+001
         vertex 3.436455e+001 3.894814e+001 7.000000e+001
         vertex 3.409346e+001 4.230607e+001 7.000000e+001
      endloop
   endfacet
   facet normal 0.000000e+000 0.000000e+000 1.000000e+000
      outer loop
         vertex 0.000000e+000 8.172177e+001 7.000000e+001
         vertex 3.409346e+001 4.230607e+001 7.000000e+001
         vertex 3.436455e+001 4.566401e+001 7.000000e+001
      endloop
   endfacet
   facet normal 0.000000e+000 0.000000e+000 1.000000e+000
      outer loop
         vertex 5.921397e+001 6.281633e+001 7.000000e+001
         vertex 6.244983e+001 6.187906e+001 7.000000e+001
         vertex 1.046977e+002 8.172177e+001 7.000000e+001
      endloop
   endfacet
   facet normal 0.000000e+000 0.000000e+000 1.000000e+000
      outer loop
         vertex 7.069558e+001 2.842472e+001 7.000000e+001
         vertex 6.826595e+001 2.609103e+001 7.000000e+001
         vertex 1.046977e+002 0.000000e+000 7.000000e+001
      endloop
   endfacet
   facet normal 0.000000e+000 0.000000e+000 1.000000e+000
      outer loop
         vertex 1.046977e+002 0.000000e+000 7.000000e+001
         vertex 6.826595e+001 2.609103e+001 7.000000e+001
         vertex 6.549342e+001 2.417730e+001 7.000000e+001
      endloop
   endfacet
   facet normal 0.000000e+000 0.000000e+000 1.000000e+000
      outer loop
         vertex 1.046977e+002 0.000000e+000 7.000000e+001
         vertex 6.549342e+001 2.417730e+001 7.000000e+001
         vertex 6.244983e+001 2.273309e+001 7.000000e+001
      endloop
   endfacet
   facet normal 0.000000e+000 0.000000e+000 1.000000e+000
      outer loop
         vertex 6.244983e+001 2.273309e+001 7.000000e+001
         vertex 5.921397e+001 2.179581e+001 7.000000e+001
         vertex 1.046977e+002 0.000000e+000 7.000000e+001
      endloop
   endfacet
   facet normal 0.000000e+000 0.000000e+000 1.000000e+000
      outer loop
         vertex 1.046977e+002 0.000000e+000 7.000000e+001
         vertex 5.921397e+001 2.179581e+001 7.000000e+001
         vertex 5.586967e+001 2.138974e+001 7.000000e+001
      endloop
   endfacet
   facet normal 0.000000e+000 0.000000e+000 1.000000e+000
      outer loop
         vertex 1.046977e+002 0.000000e+000 7.000000e+001
         vertex 5.586967e+001 2.138974e+001 7.000000e+001
         vertex 0.000000e+000 0.000000e+000 7.000000e+001
      endloop
   endfacet
   facet normal 0.000000e+000 0.000000e+000 1.000000e+000
      outer loop
         vertex 0.000000e+000 0.000000e+000 7.000000e+001
         vertex 5.586967e+001 2.138974e+001 7.000000e+001
         vertex 5.250354e+001 2.152539e+001 7.000000e+001
      endloop
   endfacet
   facet normal 0.000000e+000 0.000000e+000 1.000000e+000
      outer loop
         vertex 0.000000e+000 0.000000e+000 7.000000e+001
         vertex 5.250354e+001 2.152539e+001 7.000000e+001
         vertex 4.920276e+001 2.219925e+001 7.000000e+001
      endloop
   endfacet
   facet normal 0.000000e+000 0.000000e+000 1.000000e+000
      outer loop
         vertex 3.436455e+001 4.566401e+001 7.000000e+001
         vertex 3.517077e+001 4.893498e+001 7.000000e+001
         vertex 0.000000e+000 8.172177e+001 7.000000e+001
      endloop
   endfacet
   facet normal 0.000000e+000 0.000000e+000 1.000000e+000
      outer loop
         vertex 0.000000e+000 8.172177e+001 7.000000e+001
         vertex 3.517077e+001 4.893498e+001 7.000000e+001
         vertex 3.649125e+001 5.203427e+001 7.000000e+001
      endloop
   endfacet
   facet normal 0.000000e+000 0.000000e+000 1.000000e+000
      outer loop
         vertex 0.000000e+000 8.172177e+001 7.000000e+001
         vertex 3.649125e+001 5.203427e+001 7.000000e+001
         vertex 3.829179e+001 5.488160e+001 7.000000e+001
      endloop
   endfacet
   facet normal 0.000000e+000 0.000000e+000 1.000000e+000
      outer loop
         vertex 3.829179e+001 5.488160e+001 7.000000e+001
         vertex 4.052576e+001 5.740322e+001 7.000000e+001
         vertex 0.000000e+000 8.172177e+001 7.000000e+001
      endloop
   endfacet
   facet normal 0.000000e+000 0.000000e+000 1.000000e+000
      outer loop
         vertex 0.000000e+000 8.172177e+001 7.000000e+001
         vertex 4.052576e+001 5.740322e+001 7.000000e+001
         vertex 4.313530e+001 5.953385e+001 7.000000e+001
      endloop
   endfacet
   facet normal 0.000000e+000 0.000000e+000 1.000000e+000
      outer loop
         vertex 0.000000e+000 8.172177e+001 7.000000e+001
         vertex 4.313530e+001 5.953385e+001 7.000000e+001
         vertex 4.605282e+001 6.121828e+001 7.000000e+001
      endloop
   endfacet
   facet normal 0.000000e+000 0.000000e+000 1.000000e+000
      outer loop
         vertex 6.244983e+001 6.187906e+001 7.000000e+001
         vertex 6.549342e+001 6.043485e+001 7.000000e+001
         vertex 1.046977e+002 8.172177e+001 7.000000e+001
      endloop
   endfacet
   facet normal 0.000000e+000 0.000000e+000 1.000000e+000
      outer loop
         vertex 1.046977e+002 8.172177e+001 7.000000e+001
         vertex 6.549342e+001 6.043485e+001 7.000000e+001
         vertex 6.826595e+001 5.852111e+001 7.000000e+001
      endloop
   endfacet
   facet normal 0.000000e+000 0.000000e+000 1.000000e+000
      outer loop
         vertex 1.046977e+002 8.172177e+001 7.000000e+001
         vertex 6.826595e+001 5.852111e+001 7.000000e+001
         vertex 7.069558e+001 5.618742e+001 7.000000e+001
      endloop
   endfacet
   facet normal 0.000000e+000 0.000000e+000 1.000000e+000
      outer loop
         vertex 4.605282e+001 6.121828e+001 7.000000e+001
         vertex 4.920276e+001 6.241290e+001 7.000000e+001
         vertex 0.000000e+000 8.172177e+001 7.000000e+001
      endloop
   endfacet
   facet normal 0.000000e+000 0.000000e+000 1.000000e+000
      outer loop
         vertex 0.000000e+000 8.172177e+001 7.000000e+001
         vertex 4.920276e+001 6.241290e+001 7.000000e+001
         vertex 5.250354e+001 6.308675e+001 7.000000e+001
      endloop
   endfacet
   facet normal 0.000000e+000 0.000000e+000 1.000000e+000
      outer loop
         vertex 0.000000e+000 8.172177e+001 7.000000e+001
         vertex 5.250354e+001 6.308675e+001 7.000000e+001
         vertex 1.046977e+002 8.172177e+001 7.000000e+001
      endloop
   endfacet
   facet normal 0.000000e+000 0.000000e+000 1.000000e+000
      outer loop
         vertex 1.046977e+002 8.172177e+001 7.000000e+001
         vertex 5.250354e+001 6.308675e+001 7.000000e+001
         vertex 5.586967e+001 6.322240e+001 7.000000e+001
      endloop
   endfacet
   facet normal 0.000000e+000 0.000000e+000 1.000000e+000
      outer loop
         vertex 1.046977e+002 8.172177e+001 7.000000e+001
         vertex 5.586967e+001 6.322240e+001 7.000000e+001
         vertex 5.921397e+001 6.281633e+001 7.000000e+001
      endloop
   endfacet
   facet normal 0.000000e+000 0.000000e+000 1.000000e+000
      outer loop
         vertex 7.069558e+001 5.618742e+001 7.000000e+001
         vertex 7.271940e+001 5.349421e+001 7.000000e+001
         vertex 1.046977e+002 8.172177e+001 7.000000e+001
      endloop
   endfacet
   facet normal 0.000000e+000 0.000000e+000 1.000000e+000
      outer loop
         vertex 1.046977e+002 8.172177e+001 7.000000e+001
         vertex 7.271940e+001 5.349421e+001 7.000000e+001
         vertex 7.428499e+001 5.051123e+001 7.000000e+001
      endloop
   endfacet
   facet normal 0.000000e+000 0.000000e+000 1.000000e+000
      outer loop
         vertex 1.046977e+002 8.172177e+001 7.000000e+001
         vertex 7.428499e+001 5.051123e+001 7.000000e+001
         vertex 7.535180e+001 4.731574e+001 7.000000e+001
      endloop
   endfacet
   facet normal 0.000000e+000 0.000000e+000 -1.000000e+000
      outer loop
         vertex 7.535180e+001 4.731574e+001 0.000000e+000
         vertex 7.428499e+001 5.051123e+001 0.000000e+000
         vertex 1.046977e+002 8.172177e+001 0.000000e+000
      endloop
   endfacet
   facet normal 0.000000e+000 0.000000e+000 -1.000000e+000
      outer loop
         vertex 1.046977e+002 0.000000e+000 0.000000e+000
         vertex 7.271940e+001 3.111794e+001 0.000000e+000
         vertex 7.428499e+001 3.410092e+001 0.000000e+000
      endloop
   endfacet
   facet normal 0.000000e+000 0.000000e+000 -1.000000e+000
      outer loop
         vertex 7.535180e+001 4.731574e+001 0.000000e+000
         vertex 1.046977e+002 8.172177e+001 0.000000e+000
         vertex 7.589220e+001 4.399051e+001 0.000000e+000
      endloop
   endfacet
   facet normal 0.000000e+000 0.000000e+000 -1.000000e+000
      outer loop
         vertex 3.829179e+001 2.973055e+001 0.000000e+000
         vertex 0.000000e+000 0.000000e+000 0.000000e+000
         vertex 3.649125e+001 3.257788e+001 0.000000e+000
      endloop
   endfacet
   facet normal 0.000000e+000 0.000000e+000 -1.000000e+000
      outer loop
         vertex 3.649125e+001 3.257788e+001 0.000000e+000
         vertex 0.000000e+000 0.000000e+000 0.000000e+000
         vertex 3.517077e+001 3.567717e+001 0.000000e+000
      endloop
   endfacet
   facet normal 0.000000e+000 0.000000e+000 -1.000000e+000
      outer loop
         vertex 0.000000e+000 8.172177e+001 0.000000e+000
         vertex 4.920276e+001 6.241290e+001 0.000000e+000
         vertex 4.605282e+001 6.121828e+001 0.000000e+000
      endloop
   endfacet
   facet normal 0.000000e+000 0.000000e+000 -1.000000e+000
      outer loop
         vertex 3.829179e+001 5.488160e+001 0.000000e+000
         vertex 3.649125e+001 5.203427e+001 0.000000e+000
         vertex 0.000000e+000 8.172177e+001 0.000000e+000
      endloop
   endfacet
   facet normal 0.000000e+000 0.000000e+000 -1.000000e+000
      outer loop
         vertex 0.000000e+000 8.172177e+001 0.000000e+000
         vertex 3.649125e+001 5.203427e+001 0.000000e+000
         vertex 3.517077e+001 4.893498e+001 0.000000e+000
      endloop
   endfacet
   facet normal 0.000000e+000 0.000000e+000 -1.000000e+000
      outer loop
         vertex 3.517077e+001 4.893498e+001 0.000000e+000
         vertex 3.436455e+001 4.566401e+001 0.000000e+000
         vertex 0.000000e+000 8.172177e+001 0.000000e+000
      endloop
   endfacet
   facet normal 0.000000e+000 0.000000e+000 -1.000000e+000
      outer loop
         vertex 0.000000e+000 8.172177e+001 0.000000e+000
         vertex 3.436455e+001 4.566401e+001 0.000000e+000
         vertex 3.409346e+001 4.230607e+001 0.000000e+000
      endloop
   endfacet
   facet normal 0.000000e+000 0.000000e+000 -1.000000e+000
      outer loop
         vertex 0.000000e+000 8.172177e+001 0.000000e+000
         vertex 3.409346e+001 4.230607e+001 0.000000e+000
         vertex 0.000000e+000 0.000000e+000 0.000000e+000
      endloop
   endfacet
   facet normal 0.000000e+000 0.000000e+000 -1.000000e+000
      outer loop
         vertex 0.000000e+000 0.000000e+000 0.000000e+000
         vertex 3.409346e+001 4.230607e+001 0.000000e+000
         vertex 3.436455e+001 3.894814e+001 0.000000e+000
      endloop
   endfacet
   facet normal 0.000000e+000 0.000000e+000 -1.000000e+000
      outer loop
         vertex 0.000000e+000 0.000000e+000 0.000000e+000
         vertex 3.436455e+001 3.894814e+001 0.000000e+000
         vertex 3.517077e+001 3.567717e+001 0.000000e+000
      endloop
   endfacet
   facet normal 0.000000e+000 0.000000e+000 -1.000000e+000
      outer loop
         vertex 3.829179e+001 2.973055e+001 0.000000e+000
         vertex 4.052576e+001 2.720892e+001 0.000000e+000
         vertex 0.000000e+000 0.000000e+000 0.000000e+000
      endloop
   endfacet
   facet normal 0.000000e+000 0.000000e+000 -1.000000e+000
      outer loop
         vertex 0.000000e+000 0.000000e+000 0.000000e+000
         vertex 4.052576e+001 2.720892e+001 0.000000e+000
         vertex 4.313530e+001 2.507830e+001 0.000000e+000
      endloop
   endfacet
   facet normal 0.000000e+000 0.000000e+000 -1.000000e+000
      outer loop
         vertex 0.000000e+000 0.000000e+000 0.000000e+000
         vertex 4.313530e+001 2.507830e+001 0.000000e+000
         vertex 4.605282e+001 2.339387e+001 0.000000e+000
      endloop
   endfacet
   facet normal 0.000000e+000 0.000000e+000 -1.000000e+000
      outer loop
         vertex 5.921397e+001 2.179581e+001 0.000000e+000
         vertex 6.244983e+001 2.273309e+001 0.000000e+000
         vertex 1.046977e+002 0.000000e+000 0.000000e+000
      endloop
   endfacet
   facet normal 0.000000e+000 0.000000e+000 -1.000000e+000
      outer loop
         vertex 1.046977e+002 0.000000e+000 0.000000e+000
         vertex 6.244983e+001 2.273309e+001 0.000000e+000
         vertex 6.549342e+001 2.417730e+001 0.000000e+000
      endloop
   endfacet
   facet normal 0.000000e+000 0.000000e+000 -1.000000e+000
      outer loop
         vertex 6.244983e+001 6.187906e+001 0.000000e+000
         vertex 1.046977e+002 8.172177e+001 0.000000e+000
         vertex 6.549342e+001 6.043485e+001 0.000000e+000
      endloop
   endfacet
   facet normal 0.000000e+000 0.000000e+000 -1.000000e+000
      outer loop
         vertex 6.549342e+001 6.043485e+001 0.000000e+000
         vertex 1.046977e+002 8.172177e+001 0.000000e+000
         vertex 6.826595e+001 5.852111e+001 0.000000e+000
      endloop
   endfacet
   facet normal 0.000000e+000 0.000000e+000 -1.000000e+000
      outer loop
         vertex 4.605282e+001 6.121828e+001 0.000000e+000
         vertex 4.313530e+001 5.953385e+001 0.000000e+000
         vertex 0.000000e+000 8.172177e+001 0.000000e+000
      endloop
   endfacet
   facet normal 0.000000e+000 0.000000e+000 -1.000000e+000
      outer loop
         vertex 0.000000e+000 8.172177e+001 0.000000e+000
         vertex 4.313530e+001 5.953385e+001 0.000000e+000
         vertex 4.052576e+001 5.740322e+001 0.000000e+000
      endloop
   endfacet
   facet normal 0.000000e+000 0.000000e+000 -1.000000e+000
      outer loop
         vertex 0.000000e+000 8.172177e+001 0.000000e+000
         vertex 4.052576e+001 5.740322e+001 0.000000e+000
         vertex 3.829179e+001 5.488160e+001 0.000000e+000
      endloop
   endfacet
   facet normal 0.000000e+000 0.000000e+000 -1.000000e+000
      outer loop
         vertex 7.428499e+001 5.051123e+001 0.000000e+000
         vertex 7.271940e+001 5.349421e+001 0.000000e+000
         vertex 1.046977e+002 8.172177e+001 0.000000e+000
      endloop
   endfacet
   facet normal 0.000000e+000 0.000000e+000 -1.000000e+000
      outer loop
         vertex 1.046977e+002 8.172177e+001 0.000000e+000
         vertex 7.271940e+001 5.349421e+001 0.000000e+000
         vertex 7.069558e+001 5.618742e+001 0.000000e+000
      endloop
   endfacet
   facet normal 0.000000e+000 0.000000e+000 -1.000000e+000
      outer loop
         vertex 1.046977e+002 8.172177e+001 0.000000e+000
         vertex 7.069558e+001 5.618742e+001 0.000000e+000
         vertex 6.826595e+001 5.852111e+001 0.000000e+000
      endloop
   endfacet
   facet normal 0.000000e+000 0.000000e+000 -1.000000e+000
      outer loop
         vertex 6.244983e+001 6.187906e+001 0.000000e+000
         vertex 5.921397e+001 6.281633e+001 0.000000e+000
         vertex 1.046977e+002 8.172177e+001 0.000000e+000
      endloop
   endfacet
   facet normal 0.000000e+000 0.000000e+000 -1.000000e+000
      outer loop
         vertex 1.046977e+002 8.172177e+001 0.000000e+000
         vertex 5.921397e+001 6.281633e+001 0.000000e+000
         vertex 5.586967e+001 6.322240e+001 0.000000e+000
      endloop
   endfacet
   facet normal 0.000000e+000 0.000000e+000 -1.000000e+000
      outer loop
         vertex 1.046977e+002 8.172177e+001 0.000000e+000
         vertex 5.586967e+001 6.322240e+001 0.000000e+000
         vertex 0.000000e+000 8.172177e+001 0.000000e+000
      endloop
   endfacet
   facet normal 0.000000e+000 0.000000e+000 -1.000000e+000
      outer loop
         vertex 0.000000e+000 8.172177e+001 0.000000e+000
         vertex 5.586967e+001 6.322240e+001 0.000000e+000
         vertex 5.250354e+001 6.308675e+001 0.000000e+000
      endloop
   endfacet
   facet normal 0.000000e+000 0.000000e+000 -1.000000e+000
      outer loop
         vertex 0.000000e+000 8.172177e+001 0.000000e+000
         vertex 5.250354e+001 6.308675e+001 0.000000e+000
         vertex 4.920276e+001 6.241290e+001 0.000000e+000
      endloop
   endfacet
   facet normal 0.000000e+000 0.000000e+000 -1.000000e+000
      outer loop
         vertex 4.605282e+001 2.339387e+001 0.000000e+000
         vertex 4.920276e+001 2.219925e+001 0.000000e+000
         vertex 0.000000e+000 0.000000e+000 0.000000e+000
      endloop
   endfacet
   facet normal 0.000000e+000 0.000000e+000 -1.000000e+000
      outer loop
         vertex 0.000000e+000 0.000000e+000 0.000000e+000
         vertex 4.920276e+001 2.219925e+001 0.000000e+000
         vertex 5.250354e+001 2.152539e+001 0.000000e+000
      endloop
   endfacet
   facet normal 0.000000e+000 0.000000e+000 -1.000000e+000
      outer loop
         vertex 0.000000e+000 0.000000e+000 0.000000e+000
         vertex 5.250354e+001 2.152539e+001 0.000000e+000
         vertex 1.046977e+002 0.000000e+000 0.000000e+000
      endloop
   endfacet
   facet normal 0.000000e+000 0.000000e+000 -1.000000e+000
      outer loop
         vertex 1.046977e+002 0.000000e+000 0.000000e+000
         vertex 5.250354e+001 2.152539e+001 0.000000e+000
         vertex 5.586967e+001 2.138974e+001 0.000000e+000
      endloop
   endfacet
   facet normal 0.000000e+000 0.000000e+000 -1.000000e+000
      outer loop
         vertex 1.046977e+002 0.000000e+000 0.000000e+000
         vertex 5.586967e+001 2.138974e+001 0.000000e+000
         vertex 5.921397e+001 2.179581e+001 0.000000e+000
      endloop
   endfacet
   facet normal 0.000000e+000 0.000000e+000 -1.000000e+000
      outer loop
         vertex 6.549342e+001 2.417730e+001 0.000000e+000
         vertex 6.826595e+001 2.609103e+001 0.000000e+000
         vertex 1.046977e+002 0.000000e+000 0.000000e+000
      endloop
   endfacet
   facet normal 0.000000e+000 0.000000e+000 -1.000000e+000
      outer loop
         vertex 1.046977e+002 0.000000e+000 0.000000e+000
         vertex 6.826595e+001 2.609103e+001 0.000000e+000
         vertex 7.069558e+001 2.842472e+001 0.000000e+000
      endloop
   endfacet
   facet normal 0.000000e+000 0.000000e+000 -1.000000e+000
      outer loop
         vertex 1.046977e+002 0.000000e+000 0.000000e+000
         vertex 7.069558e+001 2.842472e+001 0.000000e+000
         vertex 7.271940e+001 3.111794e+001 0.000000e+000
      endloop
   endfacet
   facet normal 0.000000e+000 0.000000e+000 -1.000000e+000
      outer loop
         vertex 7.428499e+001 3.410092e+001 0.000000e+000
         vertex 7.535180e+001 3.729640e+001 0.000000e+000
         vertex 1.046977e+002 0.000000e+000 0.000000e+000
      endloop
   endfacet
   facet normal 0.000000e+000 0.000000e+000 -1.000000e+000
      outer loop
         vertex 1.046977e+002 0.000000e+000 0.000000e+000
         vertex 7.535180e+001 3.729640e+001 0.000000e+000
         vertex 7.589220e+001 4.062164e+001 0.000000e+000
      endloop
   endfacet
   facet normal 0.000000e+000 0.000000e+000 -1.000000e+000
      outer loop
         vertex 1.046977e+002 0.000000e+000 0.000000e+000
         vertex 7.589220e+001 4.062164e+001 0.000000e+000
         vertex 1.046977e+002 8.172177e+001 0.000000e+000
      endloop
   endfacet
   facet normal 0.000000e+000 0.000000e+000 -1.000000e+000
      outer loop
         vertex 1.046977e+002 8.172177e+001 0.000000e+000
         vertex 7.589220e+001 4.062164e+001 0.000000e+000
         vertex 7.596008e+001 4.230607e+001 0.000000e+000
      endloop
   endfacet
   facet normal 0.000000e+000 0.000000e+000 -1.000000e+000
      outer loop
         vertex 1.046977e+002 8.172177e+001 0.000000e+000
         vertex 7.596008e+001 4.230607e+001 0.000000e+000
         vertex 7.589220e+001 4.399051e+001 0.000000e+000
      endloop
   endfacet
   facet normal -1.000000e+000 0.000000e+000 0.000000e+000
      outer loop
         vertex 0.000000e+000 0.000000e+000 7.000000e+001
         vertex 0.000000e+000 8.172177e+001 7.000000e+001
         vertex 0.000000e+000 0.000000e+000 0.000000e+000
      endloop
   endfacet
   facet normal -1.000000e+000 0.000000e+000 0.000000e+000
      outer loop
         vertex 0.000000e+000 0.000000e+000 0.000000e+000
         vertex 0.000000e+000 8.172177e+001 7.000000e+001
         vertex 0.000000e+000 8.172177e+001 0.000000e+000
      endloop
   endfacet
   facet normal 0.000000e+000 -1.000000e+000 0.000000e+000
      outer loop
         vertex 1.046977e+002 0.000000e+000 7.000000e+001
         vertex 0.000000e+000 0.000000e+000 7.000000e+001
         vertex 1.046977e+002 0.000000e+000 0.000000e+000
      endloop
   endfacet
   facet normal 0.000000e+000 -1.000000e+000 0.000000e+000
      outer loop
         vertex 1.046977e+002 0.000000e+000 0.000000e+000
         vertex 0.000000e+000 0.000000e+000 7.000000e+001
         vertex 0.000000e+000 0.000000e+000 0.000000e+000
      endloop
   endfacet
   facet normal 1.000000e+000 0.000000e+000 0.000000e+000
      outer loop
         vertex 1.046977e+002 8.172177e+001 7.000000e+001
         vertex 1.046977e+002 0.000000e+000 7.000000e+001
         vertex 1.046977e+002 8.172177e+001 0.000000e+000
      endloop
   endfacet
   facet normal 1.000000e+000 0.000000e+000 0.000000e+000
      outer loop
         vertex 1.046977e+002 8.172177e+001 0.000000e+000
         vertex 1.046977e+002 0.000000e+000 7.000000e+001
         vertex 1.046977e+002 0.000000e+000 0.000000e+000
      endloop
   endfacet
   facet normal 0.000000e+000 1.000000e+000 0.000000e+000
      outer loop
         vertex 0.000000e+000 8.172177e+001 7.000000e+001
         vertex 1.046977e+002 8.172177e+001 7.000000e+001
         vertex 0.000000e+000 8.172177e+001 0.000000e+000
      endloop
   endfacet
   facet normal 0.000000e+000 1.000000e+000 0.000000e+000
      outer loop
         vertex 0.000000e+000 8.172177e+001 0.000000e+000
         vertex 1.046977e+002 8.172177e+001 7.000000e+001
         vertex 1.046977e+002 8.172177e+001 0.000000e+000
      endloop
   endfacet
   facet normal -9.996397e-001 2.684154e-002 0.000000e+000
      outer loop
         vertex 7.589220e+001 4.062164e+001 7.000000e+001
         vertex 7.596008e+001 4.230607e+001 7.000000e+001
         vertex 7.596008e+001 4.230607e+001 0.000000e+000
      endloop
   endfacet
   facet normal -9.996397e-001 -2.684154e-002 0.000000e+000
      outer loop
         vertex 7.596008e+001 4.230607e+001 0.000000e+000
         vertex 7.596008e+001 4.230607e+001 7.000000e+001
         vertex 7.589220e+001 4.399051e+001 0.000000e+000
      endloop
   endfacet
   facet normal -9.985580e-001 5.368308e-002 0.000000e+000
      outer loop
         vertex 7.596008e+001 4.230607e+001 0.000000e+000
         vertex 7.589220e+001 4.062164e+001 0.000000e+000
         vertex 7.589220e+001 4.062164e+001 7.000000e+001
      endloop
   endfacet
   facet normal -9.910081e-001 1.338019e-001 0.000000e+000
      outer loop
         vertex 7.589220e+001 4.062164e+001 7.000000e+001
         vertex 7.589220e+001 4.062164e+001 0.000000e+000
         vertex 7.535180e+001 3.729640e+001 0.000000e+000
      endloop
   endfacet
   facet normal -9.823781e-001 1.869046e-001 0.000000e+000
      outer loop
         vertex 7.589220e+001 4.062164e+001 7.000000e+001
         vertex 7.535180e+001 3.729640e+001 0.000000e+000
         vertex 7.535180e+001 3.729640e+001 7.000000e+001
      endloop
   endfacet
   facet normal -9.567115e-001 2.910380e-001 0.000000e+000
      outer loop
         vertex 7.535180e+001 3.729640e+001 7.000000e+001
         vertex 7.535180e+001 3.729640e+001 0.000000e+000
         vertex 7.428499e+001 3.410092e+001 0.000000e+000
      endloop
   endfacet
   facet normal -9.396749e-001 3.420688e-001 0.000000e+000
      outer loop
         vertex 7.535180e+001 3.729640e+001 7.000000e+001
         vertex 7.428499e+001 3.410092e+001 0.000000e+000
         vertex 7.428499e+001 3.410092e+001 7.000000e+001
      endloop
   endfacet
   facet normal -8.976365e-001 4.407365e-001 0.000000e+000
      outer loop
         vertex 7.428499e+001 3.410092e+001 7.000000e+001
         vertex 7.428499e+001 3.410092e+001 0.000000e+000
         vertex 7.271940e+001 3.111794e+001 0.000000e+000
      endloop
   endfacet
   facet normal -8.726347e-001 4.883736e-001 0.000000e+000
      outer loop
         vertex 7.428499e+001 3.410092e+001 7.000000e+001
         vertex 7.271940e+001 3.111794e+001 0.000000e+000
         vertex 7.271940e+001 3.111794e+001 7.000000e+001
      endloop
   endfacet
   facet normal -8.153133e-001 5.790201e-001 0.000000e+000
      outer loop
         vertex 7.271940e+001 3.111794e+001 7.000000e+001
         vertex 7.271940e+001 3.111794e+001 0.000000e+000
         vertex 7.069558e+001 2.842472e+001 0.000000e+000
      endloop
   endfacet
   facet normal -7.829937e-001 6.220297e-001 0.000000e+000
      outer loop
         vertex 7.271940e+001 3.111794e+001 7.000000e+001
         vertex 7.069558e+001 2.842472e+001 0.000000e+000
         vertex 7.069558e+001 2.842472e+001 7.000000e+001
      endloop
   endfacet
   facet normal -7.118738e-001 7.023074e-001 0.000000e+000
      outer loop
         vertex 7.069558e+001 2.842472e+001 7.000000e+001
         vertex 7.069558e+001 2.842472e+001 0.000000e+000
         vertex 6.826595e+001 2.609103e+001 0.000000e+000
      endloop
   endfacet
   facet normal -6.730735e-001 7.395756e-001 0.000000e+000
      outer loop
         vertex 7.069558e+001 2.842472e+001 7.000000e+001
         vertex 6.826595e+001 2.609103e+001 0.000000e+000
         vertex 6.826595e+001 2.609103e+001 7.000000e+001
      endloop
   endfacet
   facet normal -5.899972e-001 8.074053e-001 0.000000e+000
      outer loop
         vertex 6.826595e+001 2.609103e+001 7.000000e+001
         vertex 6.826595e+001 2.609103e+001 0.000000e+000
         vertex 6.549342e+001 2.417730e+001 0.000000e+000
      endloop
   endfacet
   facet normal -5.457212e-001 8.379669e-001 0.000000e+000
      outer loop
         vertex 6.826595e+001 2.609103e+001 7.000000e+001
         vertex 6.549342e+001 2.417730e+001 0.000000e+000
         vertex 6.549342e+001 2.417730e+001 7.000000e+001
      endloop
   endfacet
   facet normal -4.528400e-001 8.915918e-001 0.000000e+000
      outer loop
         vertex 6.549342e+001 2.417730e+001 7.000000e+001
         vertex 6.549342e+001 2.417730e+001 0.000000e+000
         vertex 6.244983e+001 2.273309e+001 0.000000e+000
      endloop
   endfacet
   facet normal -4.042349e-001 9.146552e-001 0.000000e+000
      outer loop
         vertex 6.549342e+001 2.417730e+001 7.000000e+001
         vertex 6.244983e+001 2.273309e+001 0.000000e+000
         vertex 6.244983e+001 2.273309e+001 7.000000e+001
      endloop
   endfacet
   facet normal -3.039545e-001 9.526865e-001 0.000000e+000
      outer loop
         vertex 6.244983e+001 2.273309e+001 7.000000e+001
         vertex 6.244983e+001 2.273309e+001 0.000000e+000
         vertex 5.921397e+001 2.179581e+001 0.000000e+000
      endloop
   endfacet
   facet normal -2.522791e-001 9.676545e-001 0.000000e+000
      outer loop
         vertex 6.244983e+001 2.273309e+001 7.000000e+001
         vertex 5.921397e+001 2.179581e+001 0.000000e+000
         vertex 5.921397e+001 2.179581e+001 7.000000e+001
      endloop
   endfacet
   facet normal -1.471967e-001 9.891073e-001 0.000000e+000
      outer loop
         vertex 5.921397e+001 2.179581e+001 7.000000e+001
         vertex 5.921397e+001 2.179581e+001 0.000000e+000
         vertex 5.586967e+001 2.138974e+001 0.000000e+000
      endloop
   endfacet
   facet normal -9.378949e-002 9.955921e-001 0.000000e+000
      outer loop
         vertex 5.921397e+001 2.179581e+001 7.000000e+001
         vertex 5.586967e+001 2.138974e+001 0.000000e+000
         vertex 5.586967e+001 2.138974e+001 7.000000e+001
      endloop
   endfacet
   facet normal 1.337347e-002 9.999106e-001 0.000000e+000
      outer loop
         vertex 5.586967e+001 2.138974e+001 7.000000e+001
         vertex 5.586967e+001 2.138974e+001 0.000000e+000
         vertex 5.250354e+001 2.152539e+001 0.000000e+000
      endloop
   endfacet
   facet normal 6.712926e-002 9.977443e-001 0.000000e+000
      outer loop
         vertex 5.586967e+001 2.138974e+001 7.000000e+001
         vertex 5.250354e+001 2.152539e+001 0.000000e+000
         vertex 5.250354e+001 2.152539e+001 7.000000e+001
      endloop
   endfacet
   facet normal 1.735972e-001 9.848167e-001 0.000000e+000
      outer loop
         vertex 5.250354e+001 2.152539e+001 7.000000e+001
         vertex 5.250354e+001 2.152539e+001 0.000000e+000
         vertex 4.920276e+001 2.219925e+001 0.000000e+000
      endloop
   endfacet
   facet normal 2.263094e-001 9.740555e-001 0.000000e+000
      outer loop
         vertex 5.250354e+001 2.152539e+001 7.000000e+001
         vertex 4.920276e+001 2.219925e+001 0.000000e+000
         vertex 4.920276e+001 2.219925e+001 7.000000e+001
      endloop
   endfacet
   facet normal 3.293249e-001 9.442167e-001 0.000000e+000
      outer loop
         vertex 4.920276e+001 2.219925e+001 7.000000e+001
         vertex 4.920276e+001 2.219925e+001 0.000000e+000
         vertex 4.605282e+001 2.339387e+001 0.000000e+000
      endloop
   endfacet
   facet normal 3.796282e-001 9.251391e-001 0.000000e+000
      outer loop
         vertex 4.920276e+001 2.219925e+001 7.000000e+001
         vertex 4.605282e+001 2.339387e+001 0.000000e+000
         vertex 4.605282e+001 2.339387e+001 7.000000e+001
      endloop
   endfacet
   facet normal 4.765233e-001 8.791618e-001 0.000000e+000
      outer loop
         vertex 4.605282e+001 2.339387e+001 7.000000e+001
         vertex 4.605282e+001 2.339387e+001 0.000000e+000
         vertex 4.313530e+001 2.507830e+001 0.000000e+000
      endloop
   endfacet
   facet normal 5.231149e-001 8.522622e-001 0.000000e+000
      outer loop
         vertex 4.605282e+001 2.339387e+001 7.000000e+001
         vertex 4.313530e+001 2.507830e+001 0.000000e+000
         vertex 4.313530e+001 2.507830e+001 7.000000e+001
      endloop
   endfacet
   facet normal 6.113799e-001 7.913373e-001 0.000000e+000
      outer loop
         vertex 4.313530e+001 2.507830e+001 7.000000e+001
         vertex 4.313530e+001 2.507830e+001 0.000000e+000
         vertex 4.052576e+001 2.720892e+001 0.000000e+000
      endloop
   endfacet
   facet normal 6.530532e-001 7.573121e-001 0.000000e+000
      outer loop
         vertex 4.313530e+001 2.507830e+001 7.000000e+001
         vertex 4.052576e+001 2.720892e+001 0.000000e+000
         vertex 4.052576e+001 2.720892e+001 7.000000e+001
      endloop
   endfacet
   facet normal 7.304021e-001 6.830174e-001 0.000000e+000
      outer loop
         vertex 4.052576e+001 2.720892e+001 7.000000e+001
         vertex 4.052576e+001 2.720892e+001 0.000000e+000
         vertex 3.829179e+001 2.973055e+001 0.000000e+000
      endloop
   endfacet
   facet normal 7.660777e-001 6.427480e-001 0.000000e+000
      outer loop
         vertex 4.052576e+001 2.720892e+001 7.000000e+001
         vertex 3.829179e+001 2.973055e+001 0.000000e+000
         vertex 3.829179e+001 2.973055e+001 7.000000e+001
      endloop
   endfacet
   facet normal 8.305073e-001 5.570078e-001 0.000000e+000
      outer loop
         vertex 3.829179e+001 2.973055e+001 7.000000e+001
         vertex 3.829179e+001 2.973055e+001 0.000000e+000
         vertex 3.649125e+001 3.257788e+001 0.000000e+000
      endloop
   endfacet
   facet normal 8.592612e-001 5.115370e-001 0.000000e+000
      outer loop
         vertex 3.829179e+001 2.973055e+001 7.000000e+001
         vertex 3.649125e+001 3.257788e+001 0.000000e+000
         vertex 3.649125e+001 3.257788e+001 7.000000e+001
      endloop
   endfacet
   facet normal 9.091027e-001 4.165719e-001 0.000000e+000
      outer loop
         vertex 3.649125e+001 3.257788e+001 7.000000e+001
         vertex 3.649125e+001 3.257788e+001 0.000000e+000
         vertex 3.517077e+001 3.567717e+001 0.000000e+000
      endloop
   endfacet
   facet normal 9.301903e-001 3.670776e-001 0.000000e+000
      outer loop
         vertex 3.649125e+001 3.257788e+001 7.000000e+001
         vertex 3.517077e+001 3.567717e+001 0.000000e+000
         vertex 3.517077e+001 3.567717e+001 7.000000e+001
      endloop
   endfacet
   facet normal 9.641529e-001 2.653471e-001 0.000000e+000
      outer loop
         vertex 3.517077e+001 3.567717e+001 7.000000e+001
         vertex 3.517077e+001 3.567717e+001 0.000000e+000
         vertex 3.436455e+001 3.894814e+001 0.000000e+000
      endloop
   endfacet
   facet normal 9.770280e-001 2.131110e-001 0.000000e+000
      outer loop
         vertex 3.517077e+001 3.567717e+001 7.000000e+001
         vertex 3.436455e+001 3.894814e+001 0.000000e+000
         vertex 3.436455e+001 3.894814e+001 7.000000e+001
      endloop
   endfacet
   facet normal 9.942321e-001 1.072499e-001 0.000000e+000
      outer loop
         vertex 3.436455e+001 3.894814e+001 7.000000e+001
         vertex 3.436455e+001 3.894814e+001 0.000000e+000
         vertex 3.409346e+001 4.230607e+001 0.000000e+000
      endloop
   endfacet
   facet normal 9.985611e-001 5.362497e-002 0.000000e+000
      outer loop
         vertex 3.436455e+001 3.894814e+001 7.000000e+001
         vertex 3.409346e+001 4.230607e+001 0.000000e+000
         vertex 3.409346e+001 4.230607e+001 7.000000e+001
      endloop
   endfacet
   facet normal 9.985611e-001 -5.362497e-002 0.000000e+000
      outer loop
         vertex 3.409346e+001 4.230607e+001 7.000000e+001
         vertex 3.409346e+001 4.230607e+001 0.000000e+000
         vertex 3.436455e+001 4.566401e+001 0.000000e+000
      endloop
   endfacet
   facet normal 9.942321e-001 -1.072499e-001 0.000000e+000
      outer loop
         vertex 3.409346e+001 4.230607e+001 7.000000e+001
         vertex 3.436455e+001 4.566401e+001 0.000000e+000
         vertex 3.436455e+001 4.566401e+001 7.000000e+001
      endloop
   endfacet
   facet normal 9.770280e-001 -2.131110e-001 0.000000e+000
      outer loop
         vertex 3.436455e+001 4.566401e+001 7.000000e+001
         vertex 3.436455e+001 4.566401e+001 0.000000e+000
         vertex 3.517077e+001 4.893498e+001 0.000000e+000
      endloop
   endfacet
   facet normal 9.641529e-001 -2.653471e-001 0.000000e+000
      outer loop
         vertex 3.436455e+001 4.566401e+001 7.000000e+001
         vertex 3.517077e+001 4.893498e+001 0.000000e+000
         vertex 3.517077e+001 4.893498e+001 7.000000e+001
      endloop
   endfacet
   facet normal 9.301903e-001 -3.670776e-001 0.000000e+000
      outer loop
         vertex 3.517077e+001 4.893498e+001 7.000000e+001
         vertex 3.517077e+001 4.893498e+001 0.000000e+000
         vertex 3.649125e+001 5.203427e+001 0.000000e+000
      endloop
   endfacet
   facet normal 9.091028e-001 -4.165719e-001 0.000000e+000
      outer loop
         vertex 3.517077e+001 4.893498e+001 7.000000e+001
         vertex 3.649125e+001 5.203427e+001 0.000000e+000
         vertex 3.649125e+001 5.203427e+001 7.000000e+001
      endloop
   endfacet
   facet normal 8.592612e-001 -5.115370e-001 0.000000e+000
      outer loop
         vertex 3.649125e+001 5.203427e+001 7.000000e+001
         vertex 3.649125e+001 5.203427e+001 0.000000e+000
         vertex 3.829179e+001 5.488160e+001 0.000000e+000
      endloop
   endfacet
   facet normal 8.305073e-001 -5.570078e-001 0.000000e+000
      outer loop
         vertex 3.649125e+001 5.203427e+001 7.000000e+001
         vertex 3.829179e+001 5.488160e+001 0.000000e+000
         vertex 3.829179e+001 5.488160e+001 7.000000e+001
      endloop
   endfacet
   facet normal 7.660777e-001 -6.427480e-001 0.000000e+000
      outer loop
         vertex 3.829179e+001 5.488160e+001 7.000000e+001
         vertex 3.829179e+001 5.488160e+001 0.000000e+000
         vertex 4.052576e+001 5.740322e+001 0.000000e+000
      endloop
   endfacet
   facet normal 7.304021e-001 -6.830174e-001 0.000000e+000
      outer loop
         vertex 3.829179e+001 5.488160e+001 7.000000e+001
         vertex 4.052576e+001 5.740322e+001 0.000000e+000
         vertex 4.052576e+001 5.740322e+001 7.000000e+001
      endloop
   endfacet
   facet normal 6.530532e-001 -7.573121e-001 0.000000e+000
      outer loop
         vertex 4.052576e+001 5.740322e+001 7.000000e+001
         vertex 4.052576e+001 5.740322e+001 0.000000e+000
         vertex 4.313530e+001 5.953385e+001 0.000000e+000
      endloop
   endfacet
   facet normal 6.113799e-001 -7.913373e-001 0.000000e+000
      outer loop
         vertex 4.052576e+001 5.740322e+001 7.000000e+001
         vertex 4.313530e+001 5.953385e+001 0.000000e+000
         vertex 4.313530e+001 5.953385e+001 7.000000e+001
      endloop
   endfacet
   facet normal 5.231149e-001 -8.522622e-001 0.000000e+000
      outer loop
         vertex 4.313530e+001 5.953385e+001 7.000000e+001
         vertex 4.313530e+001 5.953385e+001 0.000000e+000
         vertex 4.605282e+001 6.121828e+001 0.000000e+000
      endloop
   endfacet
   facet normal 4.765233e-001 -8.791618e-001 0.000000e+000
      outer loop
         vertex 4.313530e+001 5.953385e+001 7.000000e+001
         vertex 4.605282e+001 6.121828e+001 0.000000e+000
         vertex 4.605282e+001 6.121828e+001 7.000000e+001
      endloop
   endfacet
   facet normal 3.796283e-001 -9.251391e-001 0.000000e+000
      outer loop
         vertex 4.605282e+001 6.121828e+001 7.000000e+001
         vertex 4.605282e+001 6.121828e+001 0.000000e+000
         vertex 4.920276e+001 6.241290e+001 0.000000e+000
      endloop
   endfacet
   facet normal 3.293249e-001 -9.442167e-001 0.000000e+000
      outer loop
         vertex 4.605282e+001 6.121828e+001 7.000000e+001
         vertex 4.920276e+001 6.241290e+001 0.000000e+000
         vertex 4.920276e+001 6.241290e+001 7.000000e+001
      endloop
   endfacet
   facet normal 2.263094e-001 -9.740555e-001 0.000000e+000
      outer loop
         vertex 4.920276e+001 6.241290e+001 7.000000e+001
         vertex 4.920276e+001 6.241290e+001 0.000000e+000
         vertex 5.250354e+001 6.308675e+001 0.000000e+000
      endloop
   endfacet
   facet normal 1.735972e-001 -9.848167e-001 0.000000e+000
      outer loop
         vertex 4.920276e+001 6.241290e+001 7.000000e+001
         vertex 5.250354e+001 6.308675e+001 0.000000e+000
         vertex 5.250354e+001 6.308675e+001 7.000000e+001
      endloop
   endfacet
   facet normal 6.712926e-002 -9.977443e-001 0.000000e+000
      outer loop
         vertex 5.250354e+001 6.308675e+001 7.000000e+001
         vertex 5.250354e+001 6.308675e+001 0.000000e+000
         vertex 5.586967e+001 6.322240e+001 0.000000e+000
      endloop
   endfacet
   facet normal 1.337347e-002 -9.999106e-001 0.000000e+000
      outer loop
         vertex 5.250354e+001 6.308675e+001 7.000000e+001
         vertex 5.586967e+001 6.322240e+001 0.000000e+000
         vertex 5.586967e+001 6.322240e+001 7.000000e+001
      endloop
   endfacet
   facet normal -9.378947e-002 -9.955921e-001 0.000000e+000
      outer loop
         vertex 5.586967e+001 6.322240e+001 7.000000e+001
         vertex 5.586967e+001 6.322240e+001 0.000000e+000
         vertex 5.921397e+001 6.281633e+001 0.000000e+000
      endloop
   endfacet
   facet normal -1.471967e-001 -9.891073e-001 0.000000e+000
      outer loop
         vertex 5.586967e+001 6.322240e+001 7.000000e+001
         vertex 5.921397e+001 6.281633e+001 0.000000e+000
         vertex 5.921397e+001 6.281633e+001 7.000000e+001
      endloop
   endfacet
   facet normal -2.522791e-001 -9.676545e-001 0.000000e+000
      outer loop
         vertex 5.921397e+001 6.281633e+001 7.000000e+001
         vertex 5.921397e+001 6.281633e+001 0.000000e+000
         vertex 6.244983e+001 6.187906e+001 0.000000e+000
      endloop
   endfacet
   facet normal -3.039545e-001 -9.526865e-001 0.000000e+000
      outer loop
         vertex 5.921397e+001 6.281633e+001 7.000000e+001
         vertex 6.244983e+001 6.187906e+001 0.000000e+000
         vertex 6.244983e+001 6.187906e+001 7.000000e+001
      endloop
   endfacet
   facet normal -4.042349e-001 -9.146552e-001 0.000000e+000
      outer loop
         vertex 6.244983e+001 6.187906e+001 7.000000e+001
         vertex 6.244983e+001 6.187906e+001 0.000000e+000
         vertex 6.549342e+001 6.043485e+001 0.000000e+000
      endloop
   endfacet
   facet normal -4.528400e-001 -8.915918e-001 0.000000e+000
      outer loop
         vertex 6.244983e+001 6.187906e+001 7.000000e+001
         vertex 6.549342e+001 6.043485e+001 0.000000e+000
         vertex 6.549342e+001 6.043485e+001 7.000000e+001
      endloop
   endfacet
   facet normal -5.457212e-001 -8.379669e-001 0.000000e+000
      outer loop
         vertex 6.549342e+001 6.043485e+001 7.000000e+001
         vertex 6.549342e+001 6.043485e+001 0.000000e+000
         vertex 6.826595e+001 5.852111e+001 0.000000e+000
      endloop
   endfacet
   facet normal -5.899972e-001 -8.074053e-001 0.000000e+000
      outer loop
         vertex 6.549342e+001 6.043485e+001 7.000000e+001
         vertex 6.826595e+001 5.852111e+001 0.000000e+000
         vertex 6.826595e+001 5.852111e+001 7.000000e+001
      endloop
   endfacet
   facet normal -6.730735e-001 -7.395756e-001 0.000000e+000
      outer loop
         vertex 6.826595e+001 5.852111e+001 7.000000e+001
         vertex 6.826595e+001 5.852111e+001 0.000000e+000
         vertex 7.069558e+001 5.618742e+001 0.000000e+000
      endloop
   endfacet
   facet normal -7.118738e-001 -7.023074e-001 0.000000e+000
      outer loop
         vertex 6.826595e+001 5.852111e+001 7.000000e+001
         vertex 7.069558e+001 5.618742e+001 0.000000e+000
         vertex 7.069558e+001 5.618742e+001 7.000000e+001
      endloop
   endfacet
   facet normal -7.829937e-001 -6.220297e-001 0.000000e+000
      outer loop
         vertex 7.069558e+001 5.618742e+001 7.000000e+001
         vertex 7.069558e+001 5.618742e+001 0.000000e+000
         vertex 7.271940e+001 5.349421e+001 0.000000e+000
      endloop
   endfacet
   facet normal -8.153133e-001 -5.790201e-001 0.000000e+000
      outer loop
         vertex 7.069558e+001 5.618742e+001 7.000000e+001
         vertex 7.271940e+001 5.349421e+001 0.000000e+000
         vertex 7.271940e+001 5.349421e+001 7.000000e+001
      endloop
   endfacet
   facet normal -8.726347e-001 -4.883735e-001 0.000000e+000
      outer loop
         vertex 7.271940e+001 5.349421e+001 7.000000e+001
         vertex 7.271940e+001 5.349421e+001 0.000000e+000
         vertex 7.428499e+001 5.051123e+001 0.000000e+000
      endloop
   endfacet
   facet normal -8.976365e-001 -4.407364e-001 0.000000e+000
      outer loop
         vertex 7.271940e+001 5.349421e+001 7.000000e+001
         vertex 7.428499e+001 5.051123e+001 0.000000e+000
         vertex 7.428499e+001 5.051123e+001 7.000000e+001
      endloop
   endfacet
   facet normal -9.396749e-001 -3.420688e-001 0.000000e+000
      outer loop
         vertex 7.428499e+001 5.051123e+001 7.000000e+001
         vertex 7.428499e+001 5.051123e+001 0.000000e+000
         vertex 7.535180e+001 4.731574e+001 0.000000e+000
      endloop
   endfacet
   facet normal -9.567115e-001 -2.910380e-001 0.000000e+000
      outer loop
         vertex 7.428499e+001 5.051123e+001 7.000000e+001
         vertex 7.535180e+001 4.731574e+001 0.000000e+000
         vertex 7.535180e+001 4.731574e+001 7.000000e+001
      endloop
   endfacet
   facet normal -9.823781e-001 -1.869046e-001 0.000000e+000
      outer loop
         vertex 7.535180e+001 4.731574e+001 7.000000e+001
         vertex 7.535180e+001 4.731574e+001 0.000000e+000
         vertex 7.589220e+001 4.399051e+001 0.000000e+000
      endloop
   endfacet
   facet normal -9.910081e-001 -1.338019e-001 0.000000e+000
      outer loop
         vertex 7.535180e+001 4.731574e+001 7.000000e+001
         vertex 7.589220e+001 4.399051e+001 0.000000e+000
         vertex 7.589220e+001 4.399051e+001 7.000000e+001
      endloop
   endfacet
   facet normal -9.985580e-001 -5.368308e-002 0.000000e+000
      outer loop
         vertex 7.589220e+001 4.399051e+001 7.000000e+001
         vertex 7.589220e+001 4.399051e+001 0.000000e+000
         vertex 7.596008e+001 4.230607e+001 7.000000e+001
      endloop
   endfacet
endsolid