solid Cylinder
facet normal  4.185114e -002 0.000000E+000 -9.991238e -001
 outer loop
  vertex  5.638037E+001 1.600000E+002 3.950633e -001
  vertex  5.010104E+001 0.000000E+000 0.000000E+000
  vertex  5.010104E+001 1.600000E+002 0.000000E+000
 endloop
endfacet
facet normal  -4.185114e -002 0.000000E+000 -9.991238e -001
 outer loop
  vertex  5.010104E+001 1.600000E+002 0.000000E+000
  vertex  5.010104E+001 0.000000E+000 0.000000E+000
  vertex  4.382172E+001 0.000000E+000 3.950633e -001
 endloop
endfacet
facet normal  -8.370229e -002 0.000000E+000 -9.964908e -001
 outer loop
  vertex  5.010104E+001 1.600000E+002 0.000000E+000
  vertex  4.382172E+001 0.000000E+000 3.950633e -001
  vertex  4.382172E+001 1.600000E+002 3.950633e -001
 endloop
endfacet
facet normal  -1.667446e -001 0.000000E+000 -9.860001e -001
 outer loop
  vertex  4.382172E+001 1.600000E+002 3.950633e -001
  vertex  4.382172E+001 0.000000E+000 3.950633e -001
  vertex  3.764142E+001 0.000000E+000 1.574017E+000
 endloop
endfacet
facet normal  -2.079357e -001 0.000000E+000 -9.781425e -001
 outer loop
  vertex  4.382172E+001 1.600000E+002 3.950633e -001
  vertex  3.764142E+001 0.000000E+000 1.574017E+000
  vertex  3.764142E+001 1.600000E+002 1.574017E+000
 endloop
endfacet
facet normal  -2.890083e -001 0.000000E+000 -9.573266e -001
 outer loop
  vertex  3.764142E+001 1.600000E+002 1.574017E+000
  vertex  3.764142E+001 0.000000E+000 1.574017E+000
  vertex  3.165762E+001 0.000000E+000 3.518272E+000
 endloop
endfacet
facet normal  -3.288898e -001 0.000000E+000 -9.443683e -001
 outer loop
  vertex  3.764142E+001 1.600000E+002 1.574017E+000
  vertex  3.165762E+001 0.000000E+000 3.518272E+000
  vertex  3.165762E+001 1.600000E+002 3.518272E+000
 endloop
endfacet
facet normal  -4.067142e -001 0.000000E+000 -9.135554e -001
 outer loop
  vertex  3.165762E+001 1.600000E+002 3.518272E+000
  vertex  3.165762E+001 0.000000E+000 3.518272E+000
  vertex  2.596468E+001 0.000000E+000 6.197165E+000
 endloop
endfacet
facet normal  -4.446571e -001 0.000000E+000 -8.957008e -001
 outer loop
  vertex  3.165762E+001 1.600000E+002 3.518272E+000
  vertex  2.596468E+001 0.000000E+000 6.197165E+000
  vertex  2.596468E+001 1.600000E+002 6.197165E+000
 endloop
endfacet
facet normal  -5.180060e -001 0.000000E+000 -8.553770e -001
 outer loop
  vertex  2.596468E+001 1.600000E+002 6.197165E+000
  vertex  2.596468E+001 0.000000E+000 6.197165E+000
  vertex  2.065239E+001 0.000000E+000 9.568449E+000
 endloop
endfacet
facet normal  -5.534120e -001 0.000000E+000 -8.329076e -001
 outer loop
  vertex  2.596468E+001 1.600000E+002 6.197165E+000
  vertex  2.065239E+001 0.000000E+000 9.568449E+000
  vertex  2.065239E+001 1.600000E+002 9.568449E+000
 endloop
endfacet
facet normal  -6.211286e -001 0.000000E+000 -7.837087e -001
 outer loop
  vertex  2.065239E+001 1.600000E+002 9.568449E+000
  vertex  2.065239E+001 0.000000E+000 9.568449E+000
  vertex  1.580452E+001 0.000000E+000 1.357895E+001
 endloop
endfacet
facet normal  -6.534392e -001 0.000000E+000 -7.569790e -001
 outer loop
  vertex  2.065239E+001 1.600000E+002 9.568449E+000
  vertex  1.580452E+001 0.000000E+000 1.357895E+001
  vertex  1.580452E+001 1.600000E+002 1.357895E+001
 endloop
endfacet
facet normal  -7.144555e -001 0.000000E+000 -6.996809e -001
 outer loop
  vertex  1.580452E+001 1.600000E+002 1.357895E+001
  vertex  1.580452E+001 0.000000E+000 1.357895E+001
  vertex  1.149753E+001 0.000000E+000 1.816544E+001
 endloop
endfacet
facet normal  -7.431613e -001 0.000000E+000 -6.691124e -001
 outer loop
  vertex  1.580452E+001 1.600000E+002 1.357895E+001
  vertex  1.149753E+001 0.000000E+000 1.816544E+001
  vertex  1.149753E+001 1.600000E+002 1.816544E+001
 endloop
endfacet
facet normal  -7.965151e -001 0.000000E+000 -6.046186e -001
 outer loop
  vertex  1.149753E+001 1.600000E+002 1.816544E+001
  vertex  1.149753E+001 0.000000E+000 1.816544E+001
  vertex  7.799335E+000 0.000000E+000 2.325556E+001
 endloop
endfacet
facet normal  -8.211632e -001 0.000000E+000 -5.706934e -001
 outer loop
  vertex  1.149753E+001 1.600000E+002 1.816544E+001
  vertex  7.799335E+000 0.000000E+000 2.325556E+001
  vertex  7.799335E+000 1.600000E+002 2.325556E+001
 endloop
endfacet
facet normal  -8.660132e -001 0.000000E+000 -5.000213e -001
 outer loop
  vertex  7.799335E+000 1.600000E+002 2.325556E+001
  vertex  7.799335E+000 0.000000E+000 2.325556E+001
  vertex  4.768263E+000 0.000000E+000 2.876906E+001
 endloop
endfacet
facet normal  -8.862150e -001 0.000000E+000 -4.632743e -001
 outer loop
  vertex  7.799335E+000 1.600000E+002 2.325556E+001
  vertex  4.768263E+000 0.000000E+000 2.876906E+001
  vertex  4.768263E+000 1.600000E+002 2.876906E+001
 endloop
endfacet
facet normal  -9.218537e -001 0.000000E+000 -3.875382e -001
 outer loop
  vertex  4.768263E+000 1.600000E+002 2.876906E+001
  vertex  4.768263E+000 0.000000E+000 2.876906E+001
  vertex  2.452120E+000 0.000000E+000 3.461897E+001
 endloop
endfacet
facet normal  -9.372905e -001 0.000000E+000 -3.485490e -001
 outer loop
  vertex  4.768263E+000 1.600000E+002 2.876906E+001
  vertex  2.452120E+000 0.000000E+000 3.461897E+001
  vertex  2.452120E+000 1.600000E+002 3.461897E+001
 endloop
endfacet
facet normal  -9.631560e -001 0.000000E+000 -2.689435e -001
 outer loop
  vertex  2.452120E+000 1.600000E+002 3.461897E+001
  vertex  2.452120E+000 0.000000E+000 3.461897E+001
  vertex  8.874274e -001 0.000000E+000 4.071305E+001
 endloop
endfacet
facet normal  -9.735845e -001 0.000000E+000 -2.283270e -001
 outer loop
  vertex  2.452120E+000 1.600000E+002 3.461897E+001
  vertex  8.874274e -001 0.000000E+000 4.071305E+001
  vertex  8.874274e -001 1.600000E+002 4.071305E+001
 endloop
endfacet
facet normal  -9.892687e -001 0.000000E+000 -1.461073e -001
 outer loop
  vertex  8.874274e -001 1.600000E+002 4.071305E+001
  vertex  8.874274e -001 0.000000E+000 4.071305E+001
  vertex  9.886548e -002 0.000000E+000 4.695518E+001
 endloop
endfacet
facet normal  -9.945244e -001 0.000000E+000 -1.045041e -001
 outer loop
  vertex  8.874274e -001 1.600000E+002 4.071305E+001
  vertex  9.886548e -002 0.000000E+000 4.695518E+001
  vertex  9.886548e -002 1.600000E+002 4.695518E+001
 endloop
endfacet
facet normal  -9.997802e -001 0.000000E+000 -2.096695e -002
 outer loop
  vertex  9.886548e -002 1.600000E+002 4.695518E+001
  vertex  9.886548e -002 0.000000E+000 4.695518E+001
  vertex  9.886548e -002 0.000000E+000 5.324691E+001
 endloop
endfacet
facet normal  -9.997802e -001 0.000000E+000 2.096695e -002
 outer loop
  vertex  9.886548e -002 1.600000E+002 4.695518E+001
  vertex  9.886548e -002 0.000000E+000 5.324691E+001
  vertex  9.886548e -002 1.600000E+002 5.324691E+001
 endloop
endfacet
facet normal  -9.945244e -001 0.000000E+000 1.045041e -001
 outer loop
  vertex  9.886548e -002 1.600000E+002 5.324691E+001
  vertex  9.886548e -002 0.000000E+000 5.324691E+001
  vertex  8.874274e -001 0.000000E+000 5.948904E+001
 endloop
endfacet
facet normal  -9.892687e -001 0.000000E+000 1.461073e -001
 outer loop
  vertex  9.886548e -002 1.600000E+002 5.324691E+001
  vertex  8.874274e -001 0.000000E+000 5.948904E+001
  vertex  8.874274e -001 1.600000E+002 5.948904E+001
 endloop
endfacet
facet normal  -9.735845e -001 0.000000E+000 2.283270e -001
 outer loop
  vertex  8.874274e -001 1.600000E+002 5.948904E+001
  vertex  8.874274e -001 0.000000E+000 5.948904E+001
  vertex  2.452120E+000 0.000000E+000 6.558311E+001
 endloop
endfacet
facet normal  -9.631560e -001 0.000000E+000 2.689435e -001
 outer loop
  vertex  8.874274e -001 1.600000E+002 5.948904E+001
  vertex  2.452120E+000 0.000000E+000 6.558311E+001
  vertex  2.452120E+000 1.600000E+002 6.558311E+001
 endloop
endfacet
facet normal  -9.372905e -001 0.000000E+000 3.485490e -001
 outer loop
  vertex  2.452120E+000 1.600000E+002 6.558311E+001
  vertex  2.452120E+000 0.000000E+000 6.558311E+001
  vertex  4.768263E+000 0.000000E+000 7.143303E+001
 endloop
endfacet
facet normal  -9.218537e -001 0.000000E+000 3.875382e -001
 outer loop
  vertex  2.452120E+000 1.600000E+002 6.558311E+001
  vertex  4.768263E+000 0.000000E+000 7.143303E+001
  vertex  4.768263E+000 1.600000E+002 7.143303E+001
 endloop
endfacet
facet normal  -8.862150e -001 0.000000E+000 4.632743e -001
 outer loop
  vertex  4.768263E+000 1.600000E+002 7.143303E+001
  vertex  4.768263E+000 0.000000E+000 7.143303E+001
  vertex  7.799335E+000 0.000000E+000 7.694653E+001
 endloop
endfacet
facet normal  -8.660132e -001 0.000000E+000 5.000213e -001
 outer loop
  vertex  4.768263E+000 1.600000E+002 7.143303E+001
  vertex  7.799335E+000 0.000000E+000 7.694653E+001
  vertex  7.799335E+000 1.600000E+002 7.694653E+001
 endloop
endfacet
facet normal  -8.211632e -001 0.000000E+000 5.706934e -001
 outer loop
  vertex  7.799335E+000 1.600000E+002 7.694653E+001
  vertex  7.799335E+000 0.000000E+000 7.694653E+001
  vertex  1.149753E+001 0.000000E+000 8.203665E+001
 endloop
endfacet
facet normal  -7.965151e -001 0.000000E+000 6.046186e -001
 outer loop
  vertex  7.799335E+000 1.600000E+002 7.694653E+001
  vertex  1.149753E+001 0.000000E+000 8.203665E+001
  vertex  1.149753E+001 1.600000E+002 8.203665E+001
 endloop
endfacet
facet normal  -7.431613e -001 0.000000E+000 6.691124e -001
 outer loop
  vertex  1.149753E+001 1.600000E+002 8.203665E+001
  vertex  1.149753E+001 0.000000E+000 8.203665E+001
  vertex  1.580452E+001 0.000000E+000 8.662313E+001
 endloop
endfacet
facet normal  -7.144555e -001 0.000000E+000 6.996809e -001
 outer loop
  vertex  1.149753E+001 1.600000E+002 8.203665E+001
  vertex  1.580452E+001 0.000000E+000 8.662313E+001
  vertex  1.580452E+001 1.600000E+002 8.662313E+001
 endloop
endfacet
facet normal  -6.534392e -001 0.000000E+000 7.569790e -001
 outer loop
  vertex  1.580452E+001 1.600000E+002 8.662313E+001
  vertex  1.580452E+001 0.000000E+000 8.662313E+001
  vertex  2.065239E+001 0.000000E+000 9.063364E+001
 endloop
endfacet
facet normal  -6.211286e -001 0.000000E+000 7.837087e -001
 outer loop
  vertex  1.580452E+001 1.600000E+002 8.662313E+001
  vertex  2.065239E+001 0.000000E+000 9.063364E+001
  vertex  2.065239E+001 1.600000E+002 9.063364E+001
 endloop
endfacet
facet normal  -5.534120e -001 0.000000E+000 8.329076e -001
 outer loop
  vertex  2.065239E+001 1.600000E+002 9.063364E+001
  vertex  2.065239E+001 0.000000E+000 9.063364E+001
  vertex  2.596468E+001 0.000000E+000 9.400493E+001
 endloop
endfacet
facet normal  -5.180060e -001 0.000000E+000 8.553770e -001
 outer loop
  vertex  2.065239E+001 1.600000E+002 9.063364E+001
  vertex  2.596468E+001 0.000000E+000 9.400493E+001
  vertex  2.596468E+001 1.600000E+002 9.400493E+001
 endloop
endfacet
facet normal  -4.446571e -001 0.000000E+000 8.957008e -001
 outer loop
  vertex  2.596468E+001 1.600000E+002 9.400493E+001
  vertex  2.596468E+001 0.000000E+000 9.400493E+001
  vertex  3.165762E+001 0.000000E+000 9.668382E+001
 endloop
endfacet
facet normal  -4.067142e -001 0.000000E+000 9.135554e -001
 outer loop
  vertex  2.596468E+001 1.600000E+002 9.400493E+001
  vertex  3.165762E+001 0.000000E+000 9.668382E+001
  vertex  3.165762E+001 1.600000E+002 9.668382E+001
 endloop
endfacet
facet normal  -3.288898e -001 0.000000E+000 9.443683e -001
 outer loop
  vertex  3.165762E+001 1.600000E+002 9.668382E+001
  vertex  3.165762E+001 0.000000E+000 9.668382E+001
  vertex  3.764142E+001 0.000000E+000 9.862807E+001
 endloop
endfacet
facet normal  -2.890083e -001 0.000000E+000 9.573266e -001
 outer loop
  vertex  3.165762E+001 1.600000E+002 9.668382E+001
  vertex  3.764142E+001 0.000000E+000 9.862807E+001
  vertex  3.764142E+001 1.600000E+002 9.862807E+001
 endloop
endfacet
facet normal  -2.079357e -001 0.000000E+000 9.781425e -001
 outer loop
  vertex  3.764142E+001 1.600000E+002 9.862807E+001
  vertex  3.764142E+001 0.000000E+000 9.862807E+001
  vertex  4.382172E+001 0.000000E+000 9.980702E+001
 endloop
endfacet
facet normal  -1.667446e -001 0.000000E+000 9.860001e -001
 outer loop
  vertex  3.764142E+001 1.600000E+002 9.862807E+001
  vertex  4.382172E+001 0.000000E+000 9.980702E+001
  vertex  4.382172E+001 1.600000E+002 9.980702E+001
 endloop
endfacet
facet normal  -8.370229e -002 0.000000E+000 9.964908e -001
 outer loop
  vertex  4.382172E+001 1.600000E+002 9.980702E+001
  vertex  4.382172E+001 0.000000E+000 9.980702E+001
  vertex  5.010104E+001 0.000000E+000 1.002021E+002
 endloop
endfacet
facet normal  -4.185114e -002 0.000000E+000 9.991238e -001
 outer loop
  vertex  4.382172E+001 1.600000E+002 9.980702E+001
  vertex  5.010104E+001 0.000000E+000 1.002021E+002
  vertex  5.010104E+001 1.600000E+002 1.002021E+002
 endloop
endfacet
facet normal  4.185114e -002 0.000000E+000 9.991238e -001
 outer loop
  vertex  5.010104E+001 1.600000E+002 1.002021E+002
  vertex  5.010104E+001 0.000000E+000 1.002021E+002
  vertex  5.638037E+001 0.000000E+000 9.980702E+001
 endloop
endfacet
facet normal  8.370229e -002 0.000000E+000 9.964908e -001
 outer loop
  vertex  5.010104E+001 1.600000E+002 1.002021E+002
  vertex  5.638037E+001 0.000000E+000 9.980702E+001
  vertex  5.638037E+001 1.600000E+002 9.980702E+001
 endloop
endfacet
facet normal  1.667446e -001 0.000000E+000 9.860001e -001
 outer loop
  vertex  5.638037E+001 1.600000E+002 9.980702E+001
  vertex  5.638037E+001 0.000000E+000 9.980702E+001
  vertex  6.256067E+001 0.000000E+000 9.862807E+001
 endloop
endfacet
facet normal  2.079357e -001 0.000000E+000 9.781425e -001
 outer loop
  vertex  5.638037E+001 1.600000E+002 9.980702E+001
  vertex  6.256067E+001 0.000000E+000 9.862807E+001
  vertex  6.256067E+001 1.600000E+002 9.862807E+001
 endloop
endfacet
facet normal  2.890083e -001 0.000000E+000 9.573266e -001
 outer loop
  vertex  6.256067E+001 1.600000E+002 9.862807E+001
  vertex  6.256067E+001 0.000000E+000 9.862807E+001
  vertex  6.854447E+001 0.000000E+000 9.668382E+001
 endloop
endfacet
facet normal  3.288898e -001 0.000000E+000 9.443683e -001
 outer loop
  vertex  6.256067E+001 1.600000E+002 9.862807E+001
  vertex  6.854447E+001 0.000000E+000 9.668382E+001
  vertex  6.854447E+001 1.600000E+002 9.668382E+001
 endloop
endfacet
facet normal  4.067142e -001 0.000000E+000 9.135554e -001
 outer loop
  vertex  6.854447E+001 1.600000E+002 9.668382E+001
  vertex  6.854447E+001 0.000000E+000 9.668382E+001
  vertex  7.423740E+001 0.000000E+000 9.400493E+001
 endloop
endfacet
facet normal  4.446571e -001 0.000000E+000 8.957008e -001
 outer loop
  vertex  6.854447E+001 1.600000E+002 9.668382E+001
  vertex  7.423740E+001 0.000000E+000 9.400493E+001
  vertex  7.423740E+001 1.600000E+002 9.400493E+001
 endloop
endfacet
facet normal  5.180060e -001 0.000000E+000 8.553770e -001
 outer loop
  vertex  7.423740E+001 1.600000E+002 9.400493E+001
  vertex  7.423740E+001 0.000000E+000 9.400493E+001
  vertex  7.954970E+001 0.000000E+000 9.063364E+001
 endloop
endfacet
facet normal  5.534120e -001 0.000000E+000 8.329076e -001
 outer loop
  vertex  7.423740E+001 1.600000E+002 9.400493E+001
  vertex  7.954970E+001 0.000000E+000 9.063364E+001
  vertex  7.954970E+001 1.600000E+002 9.063364E+001
 endloop
endfacet
facet normal  6.211286e -001 0.000000E+000 7.837087e -001
 outer loop
  vertex  7.954970E+001 1.600000E+002 9.063364E+001
  vertex  7.954970E+001 0.000000E+000 9.063364E+001
  vertex  8.439757E+001 0.000000E+000 8.662313E+001
 endloop
endfacet
facet normal  6.534392e -001 0.000000E+000 7.569790e -001
 outer loop
  vertex  7.954970E+001 1.600000E+002 9.063364E+001
  vertex  8.439757E+001 0.000000E+000 8.662313E+001
  vertex  8.439757E+001 1.600000E+002 8.662313E+001
 endloop
endfacet
facet normal  7.144555e -001 0.000000E+000 6.996809e -001
 outer loop
  vertex  8.439757E+001 1.600000E+002 8.662313E+001
  vertex  8.439757E+001 0.000000E+000 8.662313E+001
  vertex  8.870457E+001 0.000000E+000 8.203665E+001
 endloop
endfacet
facet normal  7.431613e -001 0.000000E+000 6.691124e -001
 outer loop
  vertex  8.439757E+001 1.600000E+002 8.662313E+001
  vertex  8.870457E+001 0.000000E+000 8.203665E+001
  vertex  8.870457E+001 1.600000E+002 8.203665E+001
 endloop
endfacet
facet normal  7.965151e -001 0.000000E+000 6.046186e -001
 outer loop
  vertex  8.870457E+001 1.600000E+002 8.203665E+001
  vertex  8.870457E+001 0.000000E+000 8.203665E+001
  vertex  9.240276E+001 0.000000E+000 7.694653E+001
 endloop
endfacet
facet normal  8.211632e -001 0.000000E+000 5.706934e -001
 outer loop
  vertex  8.870457E+001 1.600000E+002 8.203665E+001
  vertex  9.240276E+001 0.000000E+000 7.694653E+001
  vertex  9.240276E+001 1.600000E+002 7.694653E+001
 endloop
endfacet
facet normal  8.660132e -001 0.000000E+000 5.000213e -001
 outer loop
  vertex  9.240276E+001 1.600000E+002 7.694653E+001
  vertex  9.240276E+001 0.000000E+000 7.694653E+001
  vertex  9.543383E+001 0.000000E+000 7.143303E+001
 endloop
endfacet
facet normal  8.862150e -001 0.000000E+000 4.632743e -001
 outer loop
  vertex  9.240276E+001 1.600000E+002 7.694653E+001
  vertex  9.543383E+001 0.000000E+000 7.143303E+001
  vertex  9.543383E+001 1.600000E+002 7.143303E+001
 endloop
endfacet
facet normal  9.218537e -001 0.000000E+000 3.875382e -001
 outer loop
  vertex  9.543383E+001 1.600000E+002 7.143303E+001
  vertex  9.543383E+001 0.000000E+000 7.143303E+001
  vertex  9.774997E+001 0.000000E+000 6.558311E+001
 endloop
endfacet
facet normal  9.372905e -001 0.000000E+000 3.485490e -001
 outer loop
  vertex  9.543383E+001 1.600000E+002 7.143303E+001
  vertex  9.774997E+001 0.000000E+000 6.558311E+001
  vertex  9.774997E+001 1.600000E+002 6.558311E+001
 endloop
endfacet
facet normal  9.631560e -001 0.000000E+000 2.689435e -001
 outer loop
  vertex  9.774997E+001 1.600000E+002 6.558311E+001
  vertex  9.774997E+001 0.000000E+000 6.558311E+001
  vertex  9.931466E+001 0.000000E+000 5.948904E+001
 endloop
endfacet
facet normal  9.735845e -001 0.000000E+000 2.283270e -001
 outer loop
  vertex  9.774997E+001 1.600000E+002 6.558311E+001
  vertex  9.931466E+001 0.000000E+000 5.948904E+001
  vertex  9.931466E+001 1.600000E+002 5.948904E+001
 endloop
endfacet
facet normal  9.892687e -001 0.000000E+000 1.461073e -001
 outer loop
  vertex  9.931466E+001 1.600000E+002 5.948904E+001
  vertex  9.931466E+001 0.000000E+000 5.948904E+001
  vertex  1.001032E+002 0.000000E+000 5.324691E+001
 endloop
endfacet
facet normal  9.945244e -001 0.000000E+000 1.045041e -001
 outer loop
  vertex  9.931466E+001 1.600000E+002 5.948904E+001
  vertex  1.001032E+002 0.000000E+000 5.324691E+001
  vertex  1.001032E+002 1.600000E+002 5.324691E+001
 endloop
endfacet
facet normal  9.997802e -001 0.000000E+000 2.096695e -002
 outer loop
  vertex  1.001032E+002 1.600000E+002 5.324691E+001
  vertex  1.001032E+002 0.000000E+000 5.324691E+001
  vertex  1.001032E+002 0.000000E+000 4.695518E+001
 endloop
endfacet
facet normal  9.997802e -001 0.000000E+000 -2.096695e -002
 outer loop
  vertex  1.001032E+002 1.600000E+002 5.324691E+001
  vertex  1.001032E+002 0.000000E+000 4.695518E+001
  vertex  1.001032E+002 1.600000E+002 4.695518E+001
 endloop
endfacet
facet normal  9.945244e -001 0.000000E+000 -1.045041e -001
 outer loop
  vertex  1.001032E+002 1.600000E+002 4.695518E+001
  vertex  1.001032E+002 0.000000E+000 4.695518E+001
  vertex  9.931466E+001 0.000000E+000 4.071305E+001
 endloop
endfacet
facet normal  9.892687e -001 0.000000E+000 -1.461073e -001
 outer loop
  vertex  1.001032E+002 1.600000E+002 4.695518E+001
  vertex  9.931466E+001 0.000000E+000 4.071305E+001
  vertex  9.931466E+001 1.600000E+002 4.071305E+001
 endloop
endfacet
facet normal  9.735845e -001 0.000000E+000 -2.283270e -001
 outer loop
  vertex  9.931466E+001 1.600000E+002 4.071305E+001
  vertex  9.931466E+001 0.000000E+000 4.071305E+001
  vertex  9.774997E+001 0.000000E+000 3.461897E+001
 endloop
endfacet
facet normal  9.631560e -001 0.000000E+000 -2.689435e -001
 outer loop
  vertex  9.931466E+001 1.600000E+002 4.071305E+001
  vertex  9.774997E+001 0.000000E+000 3.461897E+001
  vertex  9.774997E+001 1.600000E+002 3.461897E+001
 endloop
endfacet
facet normal  9.372905e -001 0.000000E+000 -3.485490e -001
 outer loop
  vertex  9.774997E+001 1.600000E+002 3.461897E+001
  vertex  9.774997E+001 0.000000E+000 3.461897E+001
  vertex  9.543383E+001 0.000000E+000 2.876906E+001
 endloop
endfacet
facet normal  9.218537e -001 0.000000E+000 -3.875382e -001
 outer loop
  vertex  9.774997E+001 1.600000E+002 3.461897E+001
  vertex  9.543383E+001 0.000000E+000 2.876906E+001
  vertex  9.543383E+001 1.600000E+002 2.876906E+001
 endloop
endfacet
facet normal  8.862150e -001 0.000000E+000 -4.632743e -001
 outer loop
  vertex  9.543383E+001 1.600000E+002 2.876906E+001
  vertex  9.543383E+001 0.000000E+000 2.876906E+001
  vertex  9.240276E+001 0.000000E+000 2.325556E+001
 endloop
endfacet
facet normal  8.660132e -001 0.000000E+000 -5.000213e -001
 outer loop
  vertex  9.543383E+001 1.600000E+002 2.876906E+001
  vertex  9.240276E+001 0.000000E+000 2.325556E+001
  vertex  9.240276E+001 1.600000E+002 2.325556E+001
 endloop
endfacet
facet normal  8.211632e -001 0.000000E+000 -5.706934e -001
 outer loop
  vertex  9.240276E+001 1.600000E+002 2.325556E+001
  vertex  9.240276E+001 0.000000E+000 2.325556E+001
  vertex  8.870457E+001 0.000000E+000 1.816544E+001
 endloop
endfacet
facet normal  7.965151e -001 0.000000E+000 -6.046186e -001
 outer loop
  vertex  9.240276E+001 1.600000E+002 2.325556E+001
  vertex  8.870457E+001 0.000000E+000 1.816544E+001
  vertex  8.870457E+001 1.600000E+002 1.816544E+001
 endloop
endfacet
facet normal  7.431613e -001 0.000000E+000 -6.691124e -001
 outer loop
  vertex  8.870457E+001 1.600000E+002 1.816544E+001
  vertex  8.870457E+001 0.000000E+000 1.816544E+001
  vertex  8.439757E+001 0.000000E+000 1.357895E+001
 endloop
endfacet
facet normal  7.144555e -001 0.000000E+000 -6.996809e -001
 outer loop
  vertex  8.870457E+001 1.600000E+002 1.816544E+001
  vertex  8.439757E+001 0.000000E+000 1.357895E+001
  vertex  8.439757E+001 1.600000E+002 1.357895E+001
 endloop
endfacet
facet normal  6.534392e -001 0.000000E+000 -7.569790e -001
 outer loop
  vertex  8.439757E+001 1.600000E+002 1.357895E+001
  vertex  8.439757E+001 0.000000E+000 1.357895E+001
  vertex  7.954970E+001 0.000000E+000 9.568449E+000
 endloop
endfacet
facet normal  6.211286e -001 0.000000E+000 -7.837087e -001
 outer loop
  vertex  8.439757E+001 1.600000E+002 1.357895E+001
  vertex  7.954970E+001 0.000000E+000 9.568449E+000
  vertex  7.954970E+001 1.600000E+002 9.568449E+000
 endloop
endfacet
facet normal  5.534120e -001 0.000000E+000 -8.329076e -001
 outer loop
  vertex  7.954970E+001 1.600000E+002 9.568449E+000
  vertex  7.954970E+001 0.000000E+000 9.568449E+000
  vertex  7.423740E+001 0.000000E+000 6.197165E+000
 endloop
endfacet
facet normal  5.180060e -001 0.000000E+000 -8.553770e -001
 outer loop
  vertex  7.954970E+001 1.600000E+002 9.568449E+000
  vertex  7.423740E+001 0.000000E+000 6.197165E+000
  vertex  7.423740E+001 1.600000E+002 6.197165E+000
 endloop
endfacet
facet normal  4.446571e -001 0.000000E+000 -8.957008e -001
 outer loop
  vertex  7.423740E+001 1.600000E+002 6.197165E+000
  vertex  7.423740E+001 0.000000E+000 6.197165E+000
  vertex  6.854447E+001 0.000000E+000 3.518272E+000
 endloop
endfacet
facet normal  4.067142e -001 0.000000E+000 -9.135554e -001
 outer loop
  vertex  7.423740E+001 1.600000E+002 6.197165E+000
  vertex  6.854447E+001 0.000000E+000 3.518272E+000
  vertex  6.854447E+001 1.600000E+002 3.518272E+000
 endloop
endfacet
facet normal  3.288898e -001 0.000000E+000 -9.443683e -001
 outer loop
  vertex  6.854447E+001 1.600000E+002 3.518272E+000
  vertex  6.854447E+001 0.000000E+000 3.518272E+000
  vertex  6.256067E+001 0.000000E+000 1.574017E+000
 endloop
endfacet
facet normal  2.890083e -001 0.000000E+000 -9.573266e -001
 outer loop
  vertex  6.854447E+001 1.600000E+002 3.518272E+000
  vertex  6.256067E+001 0.000000E+000 1.574017E+000
  vertex  6.256067E+001 1.600000E+002 1.574017E+000
 endloop
endfacet
facet normal  2.079357e -001 0.000000E+000 -9.781425e -001
 outer loop
  vertex  6.256067E+001 1.600000E+002 1.574017E+000
  vertex  6.256067E+001 0.000000E+000 1.574017E+000
  vertex  5.638037E+001 0.000000E+000 3.950633e -001
 endloop
endfacet
facet normal  1.667446e -001 0.000000E+000 -9.860001e -001
 outer loop
  vertex  6.256067E+001 1.600000E+002 1.574017E+000
  vertex  5.638037E+001 0.000000E+000 3.950633e -001
  vertex  5.638037E+001 1.600000E+002 3.950633e -001
 endloop
endfacet
facet normal  8.370229e -002 0.000000E+000 -9.964908e -001
 outer loop
  vertex  5.638037E+001 1.600000E+002 3.950633e -001
  vertex  5.638037E+001 0.000000E+000 3.950633e -001
  vertex  5.010104E+001 0.000000E+000 0.000000E+000
 endloop
endfacet
facet normal  0.000000E+000 1.000000E+000 0.000000E+000
 outer loop
  vertex  8.870457E+001 1.600000E+002 1.816544E+001
  vertex  8.439757E+001 1.600000E+002 1.357895E+001
  vertex  8.870457E+001 1.600000E+002 8.203665E+001
 endloop
endfacet
facet normal  0.000000E+000 1.000000E+000 0.000000E+000
 outer loop
  vertex  8.439757E+001 1.600000E+002 1.357895E+001
  vertex  1.580452E+001 1.600000E+002 8.662313E+001
  vertex  2.065239E+001 1.600000E+002 9.063364E+001
 endloop
endfacet
facet normal  0.000000E+000 1.000000E+000 0.000000E+000
 outer loop
  vertex  5.638037E+001 1.600000E+002 9.980702E+001
  vertex  6.256067E+001 1.600000E+002 9.862807E+001
  vertex  8.439757E+001 1.600000E+002 1.357895E+001
 endloop
endfacet
facet normal  0.000000E+000 1.000000E+000 0.000000E+000
 outer loop
  vertex  8.439757E+001 1.600000E+002 1.357895E+001
  vertex  6.256067E+001 1.600000E+002 9.862807E+001
  vertex  6.854447E+001 1.600000E+002 9.668382E+001
 endloop
endfacet
facet normal  0.000000E+000 1.000000E+000 0.000000E+000
 outer loop
  vertex  8.439757E+001 1.600000E+002 1.357895E+001
  vertex  6.854447E+001 1.600000E+002 9.668382E+001
  vertex  7.423740E+001 1.600000E+002 9.400493E+001
 endloop
endfacet
facet normal  0.000000E+000 1.000000E+000 0.000000E+000
 outer loop
  vertex  8.439757E+001 1.600000E+002 1.357895E+001
  vertex  7.954970E+001 1.600000E+002 9.568449E+000
  vertex  1.580452E+001 1.600000E+002 8.662313E+001
 endloop
endfacet
facet normal  0.000000E+000 1.000000E+000 0.000000E+000
 outer loop
  vertex  1.580452E+001 1.600000E+002 8.662313E+001
  vertex  7.954970E+001 1.600000E+002 9.568449E+000
  vertex  7.423740E+001 1.600000E+002 6.197165E+000
 endloop
endfacet
facet normal  0.000000E+000 1.000000E+000 0.000000E+000
 outer loop
  vertex  1.580452E+001 1.600000E+002 8.662313E+001
  vertex  7.423740E+001 1.600000E+002 6.197165E+000
  vertex  6.854447E+001 1.600000E+002 3.518272E+000
 endloop
endfacet
facet normal  0.000000E+000 1.000000E+000 0.000000E+000
 outer loop
  vertex  6.854447E+001 1.600000E+002 3.518272E+000
  vertex  6.256067E+001 1.600000E+002 1.574017E+000
  vertex  1.580452E+001 1.600000E+002 8.662313E+001
 endloop
endfacet
facet normal  0.000000E+000 1.000000E+000 0.000000E+000
 outer loop
  vertex  1.580452E+001 1.600000E+002 8.662313E+001
  vertex  6.256067E+001 1.600000E+002 1.574017E+000
  vertex  5.638037E+001 1.600000E+002 3.950633e -001
 endloop
endfacet
facet normal  0.000000E+000 1.000000E+000 0.000000E+000
 outer loop
  vertex  1.580452E+001 1.600000E+002 8.662313E+001
  vertex  5.638037E+001 1.600000E+002 3.950633e -001
  vertex  5.010104E+001 1.600000E+002 0.000000E+000
 endloop
endfacet
facet normal  0.000000E+000 1.000000E+000 0.000000E+000
 outer loop
  vertex  7.423740E+001 1.600000E+002 9.400493E+001
  vertex  7.954970E+001 1.600000E+002 9.063364E+001
  vertex  8.439757E+001 1.600000E+002 1.357895E+001
 endloop
endfacet
facet normal  0.000000E+000 1.000000E+000 0.000000E+000
 outer loop
  vertex  8.439757E+001 1.600000E+002 1.357895E+001
  vertex  7.954970E+001 1.600000E+002 9.063364E+001
  vertex  8.439757E+001 1.600000E+002 8.662313E+001
 endloop
endfacet
facet normal  0.000000E+000 1.000000E+000 0.000000E+000
 outer loop
  vertex  8.439757E+001 1.600000E+002 1.357895E+001
  vertex  8.439757E+001 1.600000E+002 8.662313E+001
  vertex  8.870457E+001 1.600000E+002 8.203665E+001
 endloop
endfacet
facet normal  0.000000E+000 1.000000E+000 0.000000E+000
 outer loop
  vertex  9.240276E+001 1.600000E+002 7.694653E+001
  vertex  9.543383E+001 1.600000E+002 7.143303E+001
  vertex  1.001032E+002 1.600000E+002 4.695518E+001
 endloop
endfacet
facet normal  0.000000E+000 1.000000E+000 0.000000E+000
 outer loop
  vertex  2.065239E+001 1.600000E+002 9.063364E+001
  vertex  2.596468E+001 1.600000E+002 9.400493E+001
  vertex  8.439757E+001 1.600000E+002 1.357895E+001
 endloop
endfacet
facet normal  0.000000E+000 1.000000E+000 0.000000E+000
 outer loop
  vertex  8.439757E+001 1.600000E+002 1.357895E+001
  vertex  2.596468E+001 1.600000E+002 9.400493E+001
  vertex  3.165762E+001 1.600000E+002 9.668382E+001
 endloop
endfacet
facet normal  0.000000E+000 1.000000E+000 0.000000E+000
 outer loop
  vertex  8.439757E+001 1.600000E+002 1.357895E+001
  vertex  3.165762E+001 1.600000E+002 9.668382E+001
  vertex  3.764142E+001 1.600000E+002 9.862807E+001
 endloop
endfacet
facet normal  0.000000E+000 1.000000E+000 0.000000E+000
 outer loop
  vertex  5.010104E+001 1.600000E+002 0.000000E+000
  vertex  4.382172E+001 1.600000E+002 3.950633e -001
  vertex  1.580452E+001 1.600000E+002 8.662313E+001
 endloop
endfacet
facet normal  0.000000E+000 1.000000E+000 0.000000E+000
 outer loop
  vertex  1.580452E+001 1.600000E+002 8.662313E+001
  vertex  4.382172E+001 1.600000E+002 3.950633e -001
  vertex  3.764142E+001 1.600000E+002 1.574017E+000
 endloop
endfacet
facet normal  0.000000E+000 1.000000E+000 0.000000E+000
 outer loop
  vertex  1.580452E+001 1.600000E+002 8.662313E+001
  vertex  3.764142E+001 1.600000E+002 1.574017E+000
  vertex  3.165762E+001 1.600000E+002 3.518272E+000
 endloop
endfacet
facet normal  0.000000E+000 1.000000E+000 0.000000E+000
 outer loop
  vertex  3.165762E+001 1.600000E+002 3.518272E+000
  vertex  2.596468E+001 1.600000E+002 6.197165E+000
  vertex  1.580452E+001 1.600000E+002 8.662313E+001
 endloop
endfacet
facet normal  0.000000E+000 1.000000E+000 0.000000E+000
 outer loop
  vertex  1.580452E+001 1.600000E+002 8.662313E+001
  vertex  2.596468E+001 1.600000E+002 6.197165E+000
  vertex  2.065239E+001 1.600000E+002 9.568449E+000
 endloop
endfacet
facet normal  0.000000E+000 1.000000E+000 0.000000E+000
 outer loop
  vertex  1.580452E+001 1.600000E+002 8.662313E+001
  vertex  2.065239E+001 1.600000E+002 9.568449E+000
  vertex  1.580452E+001 1.600000E+002 1.357895E+001
 endloop
endfacet
facet normal  0.000000E+000 1.000000E+000 0.000000E+000
 outer loop
  vertex  1.580452E+001 1.600000E+002 1.357895E+001
  vertex  1.149753E+001 1.600000E+002 1.816544E+001
  vertex  1.580452E+001 1.600000E+002 8.662313E+001
 endloop
endfacet
facet normal  0.000000E+000 1.000000E+000 0.000000E+000
 outer loop
  vertex  1.580452E+001 1.600000E+002 8.662313E+001
  vertex  1.149753E+001 1.600000E+002 1.816544E+001
  vertex  7.799335E+000 1.600000E+002 2.325556E+001
 endloop
endfacet
facet normal  0.000000E+000 1.000000E+000 0.000000E+000
 outer loop
  vertex  1.580452E+001 1.600000E+002 8.662313E+001
  vertex  7.799335E+000 1.600000E+002 2.325556E+001
  vertex  1.149753E+001 1.600000E+002 8.203665E+001
 endloop
endfacet
facet normal  0.000000E+000 1.000000E+000 0.000000E+000
 outer loop
  vertex  3.764142E+001 1.600000E+002 9.862807E+001
  vertex  4.382172E+001 1.600000E+002 9.980702E+001
  vertex  8.439757E+001 1.600000E+002 1.357895E+001
 endloop
endfacet
facet normal  0.000000E+000 1.000000E+000 0.000000E+000
 outer loop
  vertex  8.439757E+001 1.600000E+002 1.357895E+001
  vertex  4.382172E+001 1.600000E+002 9.980702E+001
  vertex  5.010104E+001 1.600000E+002 1.002021E+002
 endloop
endfacet
facet normal  0.000000E+000 1.000000E+000 0.000000E+000
 outer loop
  vertex  8.439757E+001 1.600000E+002 1.357895E+001
  vertex  5.010104E+001 1.600000E+002 1.002021E+002
  vertex  5.638037E+001 1.600000E+002 9.980702E+001
 endloop
endfacet
facet normal  0.000000E+000 1.000000E+000 0.000000E+000
 outer loop
  vertex  9.543383E+001 1.600000E+002 7.143303E+001
  vertex  9.774997E+001 1.600000E+002 6.558311E+001
  vertex  1.001032E+002 1.600000E+002 4.695518E+001
 endloop
endfacet
facet normal  0.000000E+000 1.000000E+000 0.000000E+000
 outer loop
  vertex  1.001032E+002 1.600000E+002 4.695518E+001
  vertex  9.774997E+001 1.600000E+002 6.558311E+001
  vertex  9.931466E+001 1.600000E+002 5.948904E+001
 endloop
endfacet
facet normal  0.000000E+000 1.000000E+000 0.000000E+000
 outer loop
  vertex  1.001032E+002 1.600000E+002 4.695518E+001
  vertex  9.931466E+001 1.600000E+002 5.948904E+001
  vertex  1.001032E+002 1.600000E+002 5.324691E+001
 endloop
endfacet
facet normal  0.000000E+000 1.000000E+000 0.000000E+000
 outer loop
  vertex  9.240276E+001 1.600000E+002 7.694653E+001
  vertex  1.001032E+002 1.600000E+002 4.695518E+001
  vertex  8.870457E+001 1.600000E+002 8.203665E+001
 endloop
endfacet
facet normal  0.000000E+000 1.000000E+000 0.000000E+000
 outer loop
  vertex  8.870457E+001 1.600000E+002 8.203665E+001
  vertex  1.001032E+002 1.600000E+002 4.695518E+001
  vertex  9.931466E+001 1.600000E+002 4.071305E+001
 endloop
endfacet
facet normal  0.000000E+000 1.000000E+000 0.000000E+000
 outer loop
  vertex  8.870457E+001 1.600000E+002 8.203665E+001
  vertex  9.931466E+001 1.600000E+002 4.071305E+001
  vertex  9.774997E+001 1.600000E+002 3.461897E+001
 endloop
endfacet
facet normal  0.000000E+000 1.000000E+000 0.000000E+000
 outer loop
  vertex  9.774997E+001 1.600000E+002 3.461897E+001
  vertex  9.543383E+001 1.600000E+002 2.876906E+001
  vertex  8.870457E+001 1.600000E+002 8.203665E+001
 endloop
endfacet
facet normal  0.000000E+000 1.000000E+000 0.000000E+000
 outer loop
  vertex  8.870457E+001 1.600000E+002 8.203665E+001
  vertex  9.543383E+001 1.600000E+002 2.876906E+001
  vertex  9.240276E+001 1.600000E+002 2.325556E+001
 endloop
endfacet
facet normal  0.000000E+000 1.000000E+000 0.000000E+000
 outer loop
  vertex  8.870457E+001 1.600000E+002 8.203665E+001
  vertex  9.240276E+001 1.600000E+002 2.325556E+001
  vertex  8.870457E+001 1.600000E+002 1.816544E+001
 endloop
endfacet
facet normal  0.000000E+000 1.000000E+000 0.000000E+000
 outer loop
  vertex  8.874274e -001 1.600000E+002 4.071305E+001
  vertex  9.886548e -002 1.600000E+002 4.695518E+001
  vertex  9.886548e -002 1.600000E+002 5.324691E+001
 endloop
endfacet
facet normal  0.000000E+000 1.000000E+000 0.000000E+000
 outer loop
  vertex  2.452120E+000 1.600000E+002 3.461897E+001
  vertex  2.452120E+000 1.600000E+002 6.558311E+001
  vertex  4.768263E+000 1.600000E+002 7.143303E+001
 endloop
endfacet
facet normal  0.000000E+000 1.000000E+000 0.000000E+000
 outer loop
  vertex  8.874274e -001 1.600000E+002 4.071305E+001
  vertex  9.886548e -002 1.600000E+002 5.324691E+001
  vertex  2.452120E+000 1.600000E+002 3.461897E+001
 endloop
endfacet
facet normal  0.000000E+000 1.000000E+000 0.000000E+000
 outer loop
  vertex  2.452120E+000 1.600000E+002 3.461897E+001
  vertex  9.886548e -002 1.600000E+002 5.324691E+001
  vertex  8.874274e -001 1.600000E+002 5.948904E+001
 endloop
endfacet
facet normal  0.000000E+000 1.000000E+000 0.000000E+000
 outer loop
  vertex  2.452120E+000 1.600000E+002 3.461897E+001
  vertex  8.874274e -001 1.600000E+002 5.948904E+001
  vertex  2.452120E+000 1.600000E+002 6.558311E+001
 endloop
endfacet
facet normal  0.000000E+000 1.000000E+000 0.000000E+000
 outer loop
  vertex  7.799335E+000 1.600000E+002 2.325556E+001
  vertex  4.768263E+000 1.600000E+002 2.876906E+001
  vertex  1.149753E+001 1.600000E+002 8.203665E+001
 endloop
endfacet
facet normal  0.000000E+000 1.000000E+000 0.000000E+000
 outer loop
  vertex  1.149753E+001 1.600000E+002 8.203665E+001
  vertex  4.768263E+000 1.600000E+002 2.876906E+001
  vertex  2.452120E+000 1.600000E+002 3.461897E+001
 endloop
endfacet
facet normal  0.000000E+000 1.000000E+000 0.000000E+000
 outer loop
  vertex  1.149753E+001 1.600000E+002 8.203665E+001
  vertex  2.452120E+000 1.600000E+002 3.461897E+001
  vertex  7.799335E+000 1.600000E+002 7.694653E+001
 endloop
endfacet
facet normal  0.000000E+000 1.000000E+000 0.000000E+000
 outer loop
  vertex  7.799335E+000 1.600000E+002 7.694653E+001
  vertex  2.452120E+000 1.600000E+002 3.461897E+001
  vertex  4.768263E+000 1.600000E+002 7.143303E+001
 endloop
endfacet
facet normal  0.000000E+000 -1.000000E+000 0.000000E+000
 outer loop
  vertex  4.768263E+000 0.000000E+000 2.876906E+001
  vertex  7.799335E+000 0.000000E+000 2.325556E+001
  vertex  8.439757E+001 0.000000E+000 1.357895E+001
 endloop
endfacet
facet normal  0.000000E+000 -1.000000E+000 0.000000E+000
 outer loop
  vertex  8.870457E+001 0.000000E+000 1.816544E+001
  vertex  9.240276E+001 0.000000E+000 2.325556E+001
  vertex  8.870457E+001 0.000000E+000 8.203665E+001
 endloop
endfacet
facet normal  0.000000E+000 -1.000000E+000 0.000000E+000
 outer loop
  vertex  7.954970E+001 0.000000E+000 9.063364E+001
  vertex  7.423740E+001 0.000000E+000 9.400493E+001
  vertex  8.439757E+001 0.000000E+000 1.357895E+001
 endloop
endfacet
facet normal  0.000000E+000 -1.000000E+000 0.000000E+000
 outer loop
  vertex  8.439757E+001 0.000000E+000 1.357895E+001
  vertex  7.423740E+001 0.000000E+000 9.400493E+001
  vertex  6.854447E+001 0.000000E+000 9.668382E+001
 endloop
endfacet
facet normal  0.000000E+000 -1.000000E+000 0.000000E+000
 outer loop
  vertex  8.439757E+001 0.000000E+000 1.357895E+001
  vertex  6.854447E+001 0.000000E+000 9.668382E+001
  vertex  6.256067E+001 0.000000E+000 9.862807E+001
 endloop
endfacet
facet normal  0.000000E+000 -1.000000E+000 0.000000E+000
 outer loop
  vertex  6.256067E+001 0.000000E+000 9.862807E+001
  vertex  5.638037E+001 0.000000E+000 9.980702E+001
  vertex  8.439757E+001 0.000000E+000 1.357895E+001
 endloop
endfacet
facet normal  0.000000E+000 -1.000000E+000 0.000000E+000
 outer loop
  vertex  8.439757E+001 0.000000E+000 1.357895E+001
  vertex  5.638037E+001 0.000000E+000 9.980702E+001
  vertex  5.010104E+001 0.000000E+000 1.002021E+002
 endloop
endfacet
facet normal  0.000000E+000 -1.000000E+000 0.000000E+000
 outer loop
  vertex  8.439757E+001 0.000000E+000 1.357895E+001
  vertex  5.010104E+001 0.000000E+000 1.002021E+002
  vertex  4.382172E+001 0.000000E+000 9.980702E+001
 endloop
endfacet
facet normal  0.000000E+000 -1.000000E+000 0.000000E+000
 outer loop
  vertex  1.149753E+001 0.000000E+000 8.203665E+001
  vertex  7.799335E+000 0.000000E+000 7.694653E+001
  vertex  8.439757E+001 0.000000E+000 1.357895E+001
 endloop
endfacet
facet normal  0.000000E+000 -1.000000E+000 0.000000E+000
 outer loop
  vertex  8.439757E+001 0.000000E+000 1.357895E+001
  vertex  7.799335E+000 0.000000E+000 7.694653E+001
  vertex  4.768263E+000 0.000000E+000 7.143303E+001
 endloop
endfacet
facet normal  0.000000E+000 -1.000000E+000 0.000000E+000
 outer loop
  vertex  8.439757E+001 0.000000E+000 1.357895E+001
  vertex  4.768263E+000 0.000000E+000 7.143303E+001
  vertex  2.452120E+000 0.000000E+000 6.558311E+001
 endloop
endfacet
facet normal  0.000000E+000 -1.000000E+000 0.000000E+000
 outer loop
  vertex  8.870457E+001 0.000000E+000 1.816544E+001
  vertex  8.870457E+001 0.000000E+000 8.203665E+001
  vertex  8.439757E+001 0.000000E+000 1.357895E+001
 endloop
endfacet
facet normal  0.000000E+000 -1.000000E+000 0.000000E+000
 outer loop
  vertex  8.439757E+001 0.000000E+000 1.357895E+001
  vertex  8.870457E+001 0.000000E+000 8.203665E+001
  vertex  8.439757E+001 0.000000E+000 8.662313E+001
 endloop
endfacet
facet normal  0.000000E+000 -1.000000E+000 0.000000E+000
 outer loop
  vertex  8.439757E+001 0.000000E+000 1.357895E+001
  vertex  8.439757E+001 0.000000E+000 8.662313E+001
  vertex  7.954970E+001 0.000000E+000 9.063364E+001
 endloop
endfacet
facet normal  0.000000E+000 -1.000000E+000 0.000000E+000
 outer loop
  vertex  4.382172E+001 0.000000E+000 9.980702E+001
  vertex  3.764142E+001 0.000000E+000 9.862807E+001
  vertex  8.439757E+001 0.000000E+000 1.357895E+001
 endloop
endfacet
facet normal  0.000000E+000 -1.000000E+000 0.000000E+000
 outer loop
  vertex  8.439757E+001 0.000000E+000 1.357895E+001
  vertex  3.764142E+001 0.000000E+000 9.862807E+001
  vertex  3.165762E+001 0.000000E+000 9.668382E+001
 endloop
endfacet
facet normal  0.000000E+000 -1.000000E+000 0.000000E+000
 outer loop
  vertex  8.439757E+001 0.000000E+000 1.357895E+001
  vertex  3.165762E+001 0.000000E+000 9.668382E+001
  vertex  2.596468E+001 0.000000E+000 9.400493E+001
 endloop
endfacet
facet normal  0.000000E+000 -1.000000E+000 0.000000E+000
 outer loop
  vertex  2.452120E+000 0.000000E+000 6.558311E+001
  vertex  8.874274e -001 0.000000E+000 5.948904E+001
  vertex  8.439757E+001 0.000000E+000 1.357895E+001
 endloop
endfacet
facet normal  0.000000E+000 -1.000000E+000 0.000000E+000
 outer loop
  vertex  8.439757E+001 0.000000E+000 1.357895E+001
  vertex  8.874274e -001 0.000000E+000 5.948904E+001
  vertex  9.886548e -002 0.000000E+000 5.324691E+001
 endloop
endfacet
facet normal  0.000000E+000 -1.000000E+000 0.000000E+000
 outer loop
  vertex  8.439757E+001 0.000000E+000 1.357895E+001
  vertex  9.886548e -002 0.000000E+000 5.324691E+001
  vertex  9.886548e -002 0.000000E+000 4.695518E+001
 endloop
endfacet
facet normal  0.000000E+000 -1.000000E+000 0.000000E+000
 outer loop
  vertex  7.799335E+000 0.000000E+000 2.325556E+001
  vertex  1.149753E+001 0.000000E+000 1.816544E+001
  vertex  8.439757E+001 0.000000E+000 1.357895E+001
 endloop
endfacet
facet normal  0.000000E+000 -1.000000E+000 0.000000E+000
 outer loop
  vertex  8.439757E+001 0.000000E+000 1.357895E+001
  vertex  1.149753E+001 0.000000E+000 1.816544E+001
  vertex  1.580452E+001 0.000000E+000 1.357895E+001
 endloop
endfacet
facet normal  0.000000E+000 -1.000000E+000 0.000000E+000
 outer loop
  vertex  8.439757E+001 0.000000E+000 1.357895E+001
  vertex  1.580452E+001 0.000000E+000 1.357895E+001
  vertex  2.065239E+001 0.000000E+000 9.568449E+000
 endloop
endfacet
facet normal  0.000000E+000 -1.000000E+000 0.000000E+000
 outer loop
  vertex  2.065239E+001 0.000000E+000 9.568449E+000
  vertex  2.596468E+001 0.000000E+000 6.197165E+000
  vertex  8.439757E+001 0.000000E+000 1.357895E+001
 endloop
endfacet
facet normal  0.000000E+000 -1.000000E+000 0.000000E+000
 outer loop
  vertex  8.439757E+001 0.000000E+000 1.357895E+001
  vertex  2.596468E+001 0.000000E+000 6.197165E+000
  vertex  3.165762E+001 0.000000E+000 3.518272E+000
 endloop
endfacet
facet normal  0.000000E+000 -1.000000E+000 0.000000E+000
 outer loop
  vertex  8.439757E+001 0.000000E+000 1.357895E+001
  vertex  3.165762E+001 0.000000E+000 3.518272E+000
  vertex  3.764142E+001 0.000000E+000 1.574017E+000
 endloop
endfacet
facet normal  0.000000E+000 -1.000000E+000 0.000000E+000
 outer loop
  vertex  3.764142E+001 0.000000E+000 1.574017E+000
  vertex  4.382172E+001 0.000000E+000 3.950633e -001
  vertex  8.439757E+001 0.000000E+000 1.357895E+001
 endloop
endfacet
facet normal  0.000000E+000 -1.000000E+000 0.000000E+000
 outer loop
  vertex  8.439757E+001 0.000000E+000 1.357895E+001
  vertex  4.382172E+001 0.000000E+000 3.950633e -001
  vertex  5.010104E+001 0.000000E+000 0.000000E+000
 endloop
endfacet
facet normal  0.000000E+000 -1.000000E+000 0.000000E+000
 outer loop
  vertex  8.439757E+001 0.000000E+000 1.357895E+001
  vertex  5.010104E+001 0.000000E+000 0.000000E+000
  vertex  7.954970E+001 0.000000E+000 9.568449E+000
 endloop
endfacet
facet normal  0.000000E+000 -1.000000E+000 0.000000E+000
 outer loop
  vertex  9.240276E+001 0.000000E+000 2.325556E+001
  vertex  9.543383E+001 0.000000E+000 2.876906E+001
  vertex  8.870457E+001 0.000000E+000 8.203665E+001
 endloop
endfacet
facet normal  0.000000E+000 -1.000000E+000 0.000000E+000
 outer loop
  vertex  8.870457E+001 0.000000E+000 8.203665E+001
  vertex  9.543383E+001 0.000000E+000 2.876906E+001
  vertex  9.774997E+001 0.000000E+000 3.461897E+001
 endloop
endfacet
facet normal  0.000000E+000 -1.000000E+000 0.000000E+000
 outer loop
  vertex  8.870457E+001 0.000000E+000 8.203665E+001
  vertex  9.774997E+001 0.000000E+000 3.461897E+001
  vertex  9.931466E+001 0.000000E+000 4.071305E+001
 endloop
endfacet
facet normal  0.000000E+000 -1.000000E+000 0.000000E+000
 outer loop
  vertex  9.931466E+001 0.000000E+000 4.071305E+001
  vertex  1.001032E+002 0.000000E+000 4.695518E+001
  vertex  8.870457E+001 0.000000E+000 8.203665E+001
 endloop
endfacet
facet normal  0.000000E+000 -1.000000E+000 0.000000E+000
 outer loop
  vertex  8.870457E+001 0.000000E+000 8.203665E+001
  vertex  1.001032E+002 0.000000E+000 4.695518E+001
  vertex  1.001032E+002 0.000000E+000 5.324691E+001
 endloop
endfacet
facet normal  0.000000E+000 -1.000000E+000 0.000000E+000
 outer loop
  vertex  8.870457E+001 0.000000E+000 8.203665E+001
  vertex  1.001032E+002 0.000000E+000 5.324691E+001
  vertex  9.931466E+001 0.000000E+000 5.948904E+001
 endloop
endfacet
facet normal  0.000000E+000 -1.000000E+000 0.000000E+000
 outer loop
  vertex  2.596468E+001 0.000000E+000 9.400493E+001
  vertex  2.065239E+001 0.000000E+000 9.063364E+001
  vertex  8.439757E+001 0.000000E+000 1.357895E+001
 endloop
endfacet
facet normal  0.000000E+000 -1.000000E+000 0.000000E+000
 outer loop
  vertex  8.439757E+001 0.000000E+000 1.357895E+001
  vertex  2.065239E+001 0.000000E+000 9.063364E+001
  vertex  1.580452E+001 0.000000E+000 8.662313E+001
 endloop
endfacet
facet normal  0.000000E+000 -1.000000E+000 0.000000E+000
 outer loop
  vertex  8.439757E+001 0.000000E+000 1.357895E+001
  vertex  1.580452E+001 0.000000E+000 8.662313E+001
  vertex  1.149753E+001 0.000000E+000 8.203665E+001
 endloop
endfacet
facet normal  0.000000E+000 -1.000000E+000 0.000000E+000
 outer loop
  vertex  9.886548e -002 0.000000E+000 4.695518E+001
  vertex  8.874274e -001 0.000000E+000 4.071305E+001
  vertex  8.439757E+001 0.000000E+000 1.357895E+001
 endloop
endfacet
facet normal  0.000000E+000 -1.000000E+000 0.000000E+000
 outer loop
  vertex  8.439757E+001 0.000000E+000 1.357895E+001
  vertex  8.874274e -001 0.000000E+000 4.071305E+001
  vertex  2.452120E+000 0.000000E+000 3.461897E+001
 endloop
endfacet
facet normal  0.000000E+000 -1.000000E+000 0.000000E+000
 outer loop
  vertex  8.439757E+001 0.000000E+000 1.357895E+001
  vertex  2.452120E+000 0.000000E+000 3.461897E+001
  vertex  4.768263E+000 0.000000E+000 2.876906E+001
 endloop
endfacet
facet normal  0.000000E+000 -1.000000E+000 0.000000E+000
 outer loop
  vertex  5.010104E+001 0.000000E+000 0.000000E+000
  vertex  5.638037E+001 0.000000E+000 3.950633e -001
  vertex  6.256067E+001 0.000000E+000 1.574017E+000
 endloop
endfacet
facet normal  0.000000E+000 -1.000000E+000 0.000000E+000
 outer loop
  vertex  9.931466E+001 0.000000E+000 5.948904E+001
  vertex  9.774997E+001 0.000000E+000 6.558311E+001
  vertex  8.870457E+001 0.000000E+000 8.203665E+001
 endloop
endfacet
facet normal  0.000000E+000 -1.000000E+000 0.000000E+000
 outer loop
  vertex  8.870457E+001 0.000000E+000 8.203665E+001
  vertex  9.774997E+001 0.000000E+000 6.558311E+001
  vertex  9.543383E+001 0.000000E+000 7.143303E+001
 endloop
endfacet
facet normal  0.000000E+000 -1.000000E+000 0.000000E+000
 outer loop
  vertex  8.870457E+001 0.000000E+000 8.203665E+001
  vertex  9.543383E+001 0.000000E+000 7.143303E+001
  vertex  9.240276E+001 0.000000E+000 7.694653E+001
 endloop
endfacet
facet normal  0.000000E+000 -1.000000E+000 0.000000E+000
 outer loop
  vertex  6.256067E+001 0.000000E+000 1.574017E+000
  vertex  6.854447E+001 0.000000E+000 3.518272E+000
  vertex  5.010104E+001 0.000000E+000 0.000000E+000
 endloop
endfacet
facet normal  0.000000E+000 -1.000000E+000 0.000000E+000
 outer loop
  vertex  5.010104E+001 0.000000E+000 0.000000E+000
  vertex  6.854447E+001 0.000000E+000 3.518272E+000
  vertex  7.423740E+001 0.000000E+000 6.197165E+000
 endloop
endfacet
facet normal  0.000000E+000 -1.000000E+000 0.000000E+000
 outer loop
  vertex  5.010104E+001 0.000000E+000 0.000000E+000
  vertex  7.423740E+001 0.000000E+000 6.197165E+000
  vertex  7.954970E+001 0.000000E+000 9.568449E+000
 endloop
endfacet
endsolid